<svg width="120" height="24" viewBox="0 0 120 24" fill="none" xmlns="http://www.w3.org/2000/svg">
<g clip-path="url(#clip0_102_1437)">
<path d="M11.9998 17.5198L16.1498 20.0298C16.9098 20.4898 17.8398 19.8098 17.6398 18.9498L16.5398 14.2298L20.2098 11.0498C20.8798 10.4698 20.5198 9.36977 19.6398 9.29977L14.8098 8.88977L12.9198 4.42977C12.5798 3.61977 11.4198 3.61977 11.0798 4.42977L9.18983 8.87977L4.35983 9.28977C3.47983 9.35977 3.11983 10.4598 3.78983 11.0398L7.45983 14.2198L6.35983 18.9398C6.15983 19.7998 7.08983 20.4798 7.84983 20.0198L11.9998 17.5198Z" fill="#FFBB00"/>
<path d="M83.9998 17.5198L88.1498 20.0298C88.9098 20.4898 89.8398 19.8098 89.6398 18.9498L88.5398 14.2298L92.2098 11.0498C92.8798 10.4698 92.5198 9.36977 91.6398 9.29977L86.8098 8.88977L84.9198 4.42977C84.5798 3.61977 83.4198 3.61977 83.0798 4.42977L81.1898 8.87977L76.3598 9.28977C75.4798 9.35977 75.1198 10.4598 75.7898 11.0398L79.4598 14.2198L78.3598 18.9398C78.1598 19.7998 79.0898 20.4798 79.8498 20.0198L83.9998 17.5198Z" fill="#FFBB00"/>
<path d="M59.9998 17.5198L64.1498 20.0298C64.9098 20.4898 65.8398 19.8098 65.6398 18.9498L64.5398 14.2298L68.2098 11.0498C68.8798 10.4698 68.5198 9.36977 67.6398 9.29977L62.8098 8.88977L60.9198 4.42977C60.5798 3.61977 59.4198 3.61977 59.0798 4.42977L57.1898 8.87977L52.3598 9.28977C51.4798 9.35977 51.1198 10.4598 51.7898 11.0398L55.4598 14.2198L54.3598 18.9398C54.1598 19.7998 55.0898 20.4798 55.8498 20.0198L59.9998 17.5198Z" fill="#FFBB00"/>
<path d="M35.9998 17.5198L40.1498 20.0298C40.9098 20.4898 41.8398 19.8098 41.6398 18.9498L40.5398 14.2298L44.2098 11.0498C44.8798 10.4698 44.5198 9.36977 43.6398 9.29977L38.8098 8.88977L36.9198 4.42977C36.5798 3.61977 35.4198 3.61977 35.0798 4.42977L33.1898 8.87977L28.3598 9.28977C27.4798 9.35977 27.1198 10.4598 27.7898 11.0398L31.4598 14.2198L30.3598 18.9398C30.1598 19.7998 31.0898 20.4798 31.8498 20.0198L35.9998 17.5198Z" fill="#FFBB00"/>
<path d="M108 17.5198L112.15 20.0298C112.91 20.4898 113.84 19.8098 113.64 18.9498L112.54 14.2298L116.21 11.0498C116.88 10.4698 116.52 9.36977 115.64 9.29977L110.81 8.88977L108.92 4.42977C108.58 3.61977 107.42 3.61977 107.08 4.42977L105.19 8.87977L100.36 9.28977C99.4801 9.35977 99.1201 10.4598 99.7901 11.0398L103.46 14.2198L102.36 18.9398C102.16 19.7998 103.09 20.4798 103.85 20.0198L108 17.5198Z" fill="#FFBB00"/>
</g>
<defs>
<clipPath id="clip0_102_1437">
<rect width="120" height="24" fill="white"/>
</clipPath>
</defs>
</svg>
