<svg width="291" height="214" viewBox="0 0 291 214" fill="none" xmlns="http://www.w3.org/2000/svg">
<g clip-path="url(#clip0_102_1084)">
<path opacity="0.1" d="M269.335 85.5329C263.225 99.3324 271.021 115.228 280.182 127.21C283.255 131.221 286.632 135.419 287.063 140.467C287.576 146.624 283.407 152.285 278.459 155.985C269.438 162.727 257.113 164.812 246.377 161.411C237.098 158.479 229.297 151.833 219.939 149.154C204.278 144.671 187.69 152.103 174.289 161.358C164.805 167.908 154.647 175.87 143.213 174.472C135.163 173.487 128.332 167.837 123.7 161.182C121.463 157.958 119.517 154.372 116.256 152.203C114.319 150.913 112.044 150.23 109.766 149.743C88.9799 145.301 66.9248 156.143 46.4146 150.567C32.5623 146.8 21.5157 135.85 14.6497 123.246C7.78363 110.643 4.57632 96.4066 1.90555 82.3022C0.00872803 72.2787 -1.56558 61.4637 2.78506 52.2405C7.39954 42.4838 18.0797 36.5706 28.8127 35.4653C39.5456 34.3601 50.3138 37.4237 60.2024 41.745C72.5595 47.1482 84.6703 54.712 98.1591 54.7383C107.344 54.7559 116.101 51.2203 124.884 48.5437C139.596 44.0494 154.841 41.8154 170.065 39.7544C184.632 37.7814 199.341 35.9432 213.996 37.1159C224.366 37.9397 233.522 41.9034 243.583 43.7357C250.141 44.9318 256.732 44.0288 263.167 46.0547C271.082 48.5319 279.244 54.281 279.681 63.3253C280.094 71.924 272.578 78.2066 269.335 85.5329Z" fill="#FF3838"/>
<g opacity="0.5">
<path d="M85.7317 53.6964C87.1976 54.1186 89.0181 55.2092 89.9094 58.2024C91.6684 64.0658 87.5992 68.0764 88.9331 74.1655C89.2977 75.7845 89.9967 77.3093 90.9853 78.6422C92.6183 80.8557 94.3949 81.9052 96.1128 83.4561C98.2965 85.4369 99.8613 88.0065 100.619 90.8557C101.449 94.0005 101.518 97.2977 100.821 100.475C100.208 103.131 99.1647 105.063 98.2559 107.218C97.1244 109.967 96.2413 112.812 95.6174 115.719C95.2708 117.132 95.0742 118.578 95.031 120.032C95.0017 121.858 95.2861 123.843 95.5646 125.802L98.0478 143.131C98.3791 145.438 98.7133 147.783 98.725 149.979C98.7426 152.515 98.3351 154.693 97.9305 156.819C97.051 161.404 96.1216 166.162 94.1193 168.581C92.1169 171 88.722 170.161 86.6317 165.224C84.644 160.533 84.603 154.26 82.8498 149.24C80.0882 141.325 74.5942 140.269 71.5481 132.726C68.6164 125.491 69.5194 116.602 68.0301 108.358C66.9688 102.445 64.7085 97.0504 63.3687 91.2075C61.4426 82.7906 61.6331 74.0541 63.1723 67.5868C64.7114 61.1195 67.4731 56.6779 70.522 53.3094C71.8149 51.8817 73.1957 50.6123 74.8199 50.4862C76.5467 50.3543 78.0448 52.5384 79.7598 53.1804C81.7475 53.9221 83.7294 53.1277 85.7317 53.6964Z" fill="#FF3838"/>
<path d="M76.3821 50.8965C76.3821 50.8965 79.3138 125.737 91.6064 169.871" stroke="#535461" stroke-width="0.58634" stroke-miterlimit="10"/>
<path d="M89.9854 58.5684C89.9854 58.5684 76.8572 70.5326 79.3345 93.3295" stroke="#535461" stroke-width="0.58634" stroke-miterlimit="10"/>
<path d="M101.015 92.6113C101.015 92.6113 79.4373 96.9502 81.038 109.856" stroke="#535461" stroke-width="0.58634" stroke-miterlimit="10"/>
<path d="M63.1459 67.4082C63.1459 67.4082 71.8736 75.0511 79.6543 96.6988" stroke="#535461" stroke-width="0.58634" stroke-miterlimit="10"/>
<path d="M71.6801 132.835C71.6801 132.835 77.6373 137.526 82.4189 121.164" stroke="#535461" stroke-width="0.58634" stroke-miterlimit="10"/>
<path d="M97.3794 142.378C97.3794 142.378 85.2304 140.792 84.1105 133.182" stroke="#535461" stroke-width="0.58634" stroke-miterlimit="10"/>
</g>
<path d="M56.3648 3.5004C59.3727 3.94601 62.9904 5.33857 64.4768 9.63938C67.3938 18.0709 58.5225 24.4533 60.5659 33.263C61.1786 35.9015 62.6884 38.0475 64.2804 39.6131C67.3997 42.6796 70.95 44.0106 74.3214 46.0921C77.6929 48.1736 81.1933 51.4395 82.7735 56.4557C84.2951 61.2812 83.6354 66.614 82.0552 70.5982C80.4751 74.5824 78.0828 77.5522 75.9456 80.8298C73.343 84.8649 71.1668 89.1594 69.4519 93.6443C68.6867 95.6173 67.986 97.6988 67.7368 100.062C67.4613 102.756 67.8101 105.655 68.1561 108.493L71.2402 133.706C71.6507 137.063 72.064 140.478 71.8266 143.712C71.5598 147.444 70.4575 150.698 69.3698 153.876C67.0244 160.73 64.5149 167.851 60.0968 171.648C55.6788 175.445 48.7365 174.615 45.0015 167.591C41.4454 160.903 42.0991 151.683 39.0677 144.5C34.2891 133.181 23.046 132.266 17.637 121.522C12.445 111.214 15.3503 98.0272 13.2659 86.0482C11.7707 77.4642 7.72787 69.792 5.64344 61.3458C2.65311 49.1763 4.08086 36.2915 8.03865 26.5846C11.9964 16.8777 18.2351 10.0088 24.9428 4.68774C27.7866 2.43326 30.8062 0.395728 34.1718 0.0204708C37.7602 -0.37824 40.6216 2.64141 44.078 3.40072C48.0945 4.30075 52.2868 2.89647 56.3648 3.5004Z" fill="#FF3838"/>
<path d="M37.3499 0.480469C37.3499 0.480469 34.5208 110.349 54.7524 173.882" stroke="#535461" stroke-width="0.58634" stroke-miterlimit="10"/>
<path d="M64.5942 10.166C64.5942 10.166 35.975 29.3452 38.4259 62.62" stroke="#535461" stroke-width="0.58634" stroke-miterlimit="10"/>
<path d="M83.3809 58.9941C83.3809 58.9941 38.2092 67.9417 39.9917 86.7544" stroke="#535461" stroke-width="0.58634" stroke-miterlimit="10"/>
<path d="M7.99798 26.3672C7.99798 26.3672 25.166 36.5871 38.6899 67.5429" stroke="#535461" stroke-width="0.58634" stroke-miterlimit="10"/>
<path d="M17.9008 121.704C17.9008 121.704 29.6745 127.902 41.5098 103.234" stroke="#535461" stroke-width="0.58634" stroke-miterlimit="10"/>
<path d="M69.9771 132.711C69.9771 132.711 45.0195 131.814 43.5918 120.744" stroke="#535461" stroke-width="0.58634" stroke-miterlimit="10"/>
<path opacity="0.1" d="M147.204 183.462C77.9581 183.462 21.8235 178.07 21.8235 171.418C21.8235 164.767 77.9581 159.375 147.204 159.375C216.449 159.375 272.583 164.767 272.583 171.418C272.583 178.07 216.449 183.462 147.204 183.462Z" fill="#FF3838"/>
<path d="M270.617 157.084C270.617 157.084 268.16 160.309 271.751 165.146C275.342 169.983 278.303 174.094 277.093 177.116C277.093 177.116 271.675 168.107 267.266 167.981C262.856 167.855 265.765 162.502 270.617 157.084Z" fill="#FF3838"/>
<path opacity="0.1" d="M270.617 157.084C270.402 157.395 270.234 157.734 270.115 158.092C265.811 163.147 263.522 167.864 267.656 167.984C271.508 168.095 276.128 174.982 277.236 176.723C277.2 176.858 277.156 176.99 277.104 177.119C277.104 177.119 271.687 168.11 267.277 167.984C262.868 167.858 265.765 162.502 270.617 157.084Z" fill="black"/>
<path d="M266.049 161.18C266.049 162.311 266.175 163.232 266.342 163.232C266.509 163.232 266.635 162.314 266.635 161.18C266.635 160.045 266.477 160.593 266.322 160.593C266.166 160.593 266.049 160.048 266.049 161.18Z" fill="#FFD037"/>
<path d="M264.486 162.528C265.48 163.07 266.345 163.408 266.418 163.258C266.492 163.109 265.75 162.569 264.756 162.03C263.762 161.49 264.155 161.883 264.079 162.03C264.003 162.176 263.49 161.983 264.486 162.528Z" fill="#FFD037"/>
<path d="M283.595 157.084C283.595 157.084 286.052 160.309 282.461 165.146C278.869 169.983 275.92 174.094 277.093 177.116C277.093 177.116 282.51 168.107 286.92 167.981C291.329 167.855 288.444 162.502 283.595 157.084Z" fill="#FF3838"/>
<path opacity="0.1" d="M283.595 157.084C283.809 157.395 283.978 157.734 284.097 158.092C288.4 163.147 290.69 167.864 286.556 167.984C282.704 168.095 278.084 174.982 276.976 176.723C277.012 176.858 277.056 176.99 277.107 177.119C277.107 177.119 282.525 168.11 286.934 167.984C291.344 167.858 288.444 162.502 283.595 157.084Z" fill="black"/>
<path d="M288.16 161.18C288.16 162.311 288.034 163.232 287.866 163.232C287.699 163.232 287.573 162.314 287.573 161.18C287.573 160.045 287.732 160.593 287.887 160.593C288.042 160.593 288.16 160.048 288.16 161.18Z" fill="#FFD037"/>
<path d="M289.728 162.528C288.734 163.07 287.869 163.408 287.796 163.258C287.723 163.109 288.464 162.569 289.458 162.03C290.452 161.49 290.059 161.883 290.136 162.03C290.212 162.176 290.722 161.983 289.728 162.528Z" fill="#FFD037"/>
<path d="M287.38 176.697C287.38 176.697 280.511 176.485 278.441 175.011C276.371 173.536 267.887 171.786 267.362 174.131C266.837 176.477 257.04 185.89 264.794 185.952C272.548 186.013 282.812 184.744 284.879 183.486C286.946 182.229 287.38 176.697 287.38 176.697Z" fill="#A8A8A8"/>
<path opacity="0.2" d="M264.653 185.143C272.408 185.204 282.672 183.935 284.738 182.677C286.313 181.718 286.94 178.279 287.148 176.693H287.377C287.377 176.693 286.943 182.234 284.876 183.492C282.809 184.75 272.545 186.022 264.779 185.96C262.54 185.943 261.769 185.145 261.81 183.967C262.141 184.679 262.988 185.125 264.653 185.143Z" fill="black"/>
<path d="M197.975 132.204C197.975 132.204 163.6 110.243 139.836 110.243C139.836 110.243 111.226 105.786 80.1057 113.318C48.9857 120.849 37.4905 130.615 28.8625 127.748L65.11 128.809L197.975 132.204Z" fill="#8CD0F3"/>
<path opacity="0.1" d="M197.975 132.204C197.975 132.204 163.6 110.243 139.836 110.243C139.836 110.243 111.226 105.786 80.1057 113.318C48.9857 120.849 37.4905 130.615 28.8625 127.748L65.11 128.809L197.975 132.204Z" fill="#8CD0F3"/>
<path d="M35.9543 165.817H245.594L239.831 142.724L204.181 133.246L35.9543 137.667V165.817Z" fill="#121C3F"/>
<path d="M24.9196 151.387V158.757C24.9196 158.757 31.1436 163.272 31.7095 166.808C31.7095 166.808 40.6218 169.071 43.1665 169.071C43.3981 169.071 43.6503 169.071 43.9141 169.097C43.5166 168.031 43.2058 166.934 42.9848 165.817C42.3605 162.683 42.4391 159.45 43.2149 156.35C43.9907 153.251 45.4443 150.361 47.4711 147.891C49.4979 145.421 52.0473 143.431 54.9358 142.064C57.8242 140.698 60.9798 139.989 64.1751 139.989C67.3704 139.989 70.526 140.698 73.4144 142.064C76.3029 143.431 78.8523 145.421 80.8791 147.891C82.9059 150.361 84.3595 153.251 85.1352 156.35C85.911 159.45 85.9896 162.683 85.3654 165.817C85.0654 167.328 84.6045 168.802 83.9904 170.214H96.0749C96.0749 170.214 96.1863 170.253 96.3681 170.332C97.016 170.625 98.5434 171.399 98.7633 172.616H198.913L200.965 172.598C200.529 171.866 200.137 171.108 199.793 170.329C199.149 168.885 198.671 167.374 198.368 165.823C197.772 162.861 197.803 159.807 198.459 156.858C199.116 153.909 200.383 151.13 202.179 148.701C203.975 146.272 206.26 144.246 208.887 142.753C211.514 141.261 214.424 140.336 217.431 140.038C220.437 139.739 223.473 140.074 226.342 141.021C229.211 141.967 231.85 143.505 234.088 145.533C236.327 147.562 238.116 150.038 239.339 152.8C240.562 155.563 241.193 158.551 241.191 161.572C241.191 162.996 241.052 164.417 240.775 165.814C240.302 168.179 239.436 170.449 238.212 172.528C239.643 172.179 242.765 171.188 242.765 171.188C242.765 171.188 256.061 169.775 259.456 166.79L258.943 166.436L256.767 164.949L257.758 161.138C257.878 160.977 257.976 160.802 258.051 160.616C258.315 159.98 258.547 158.798 257.614 157.315C256.201 155.052 256.908 146.99 256.908 146.99C256.908 146.99 237.67 133.694 199.76 130.722C199.76 130.722 198.854 131.425 196.984 131.572C195.717 131.674 194.008 131.519 191.836 130.722C191.836 130.722 188.725 132.135 175.418 124.498C175.418 124.498 152.783 108.936 123.076 110.355C123.076 110.355 92.5217 108.514 66.4941 118.564C55.2774 122.891 46.7432 125.198 40.6599 126.418C35.0428 127.547 31.516 127.755 29.9006 127.772H29.8654C29.3377 127.772 29.024 127.772 28.9126 127.772H28.8657C28.8657 127.772 28.8657 131.141 28.6869 135.119V135.14C28.6224 136.523 28.5344 137.98 28.4113 139.396V139.484C28.0712 143.428 27.4849 147.01 26.4676 147.72L24.9196 151.387Z" fill="#2856B8"/>
<path d="M253.85 146.667C253.85 146.667 245.327 140.018 234.717 141.434C234.717 141.434 244.372 149.074 248.722 148.579L249.464 147.943L253.861 148.189C253.861 148.189 254.518 147.163 253.85 146.667Z" fill="#8CD0F3"/>
<path opacity="0.2" d="M245.577 158.172V162.097C245.577 162.097 245.87 165.847 249.256 165.988L258.931 166.466L256.758 164.979L257.749 161.168C257.869 161.009 257.968 160.834 258.042 160.649C257.163 159.84 255.09 158.474 250.874 158.181L245.577 158.172Z" fill="white"/>
<path opacity="0.2" d="M200.558 141.719L193.132 141.426C193.132 141.426 196.137 143.795 198.259 144.009C200.382 144.223 200.558 141.719 200.558 141.719Z" fill="white"/>
<path opacity="0.2" d="M184.926 164.246C184.926 164.246 117.769 154.908 101.537 157.878C101.537 157.878 96.7637 158.198 94.9578 160.106C93.1519 162.015 94.9578 160.778 94.9578 160.778L184.926 164.246Z" fill="white"/>
<path opacity="0.5" d="M147.333 138.039C147.333 138.039 146.482 136.447 145.104 136.411L136.157 135.951C136.157 135.951 136.298 137.188 137.89 137.649L147.333 138.039Z" fill="#18218A"/>
<path opacity="0.5" d="M95.5586 135.351C95.5586 135.351 94.7084 133.759 93.3305 133.724L84.383 133.252C84.383 133.252 84.5237 134.489 86.1156 134.949L95.5586 135.351Z" fill="#18218A"/>
<path d="M126.11 113.539L132.976 131.546L157.731 131.572H164.105H169.649H174.442H179.872C179.872 131.572 176.565 129.145 171.238 126.052C169.479 125.026 167.482 123.929 165.316 122.827C163.322 121.807 161.176 120.775 158.922 119.795C157.163 119.021 155.31 118.277 153.416 117.582C144.829 114.442 135.178 112.334 126.11 113.539Z" fill="#8CD0F3"/>
<path d="M87.2121 126.687C87.2121 126.687 97.5551 128.22 107.426 129.355C111.199 129.789 114.902 130.164 117.933 130.372L118.356 130.402C119.528 130.478 120.616 130.528 121.539 130.545C123.005 130.572 124.102 130.507 124.65 130.331L121.797 113.107C121.797 113.107 118.279 113.146 113.076 113.401L111.938 113.462C110.856 113.524 109.716 113.594 108.526 113.676C106.825 113.793 105.034 113.934 103.187 114.104C94.2687 114.922 84.1661 116.391 77.7691 119.035C64.1572 124.67 87.2121 126.687 87.2121 126.687Z" fill="#8CD0F3"/>
<path d="M39.5428 135.35V139.947C39.5428 139.947 46.9688 140.052 45.3769 138.569C44.3466 137.584 43.4112 136.504 42.583 135.344L39.5428 135.35Z" fill="#8CD0F3"/>
<path d="M28.4172 139.478L34.4478 139.95V134.424C34.4478 134.424 31.6538 130.499 28.8599 134.849L28.6987 135.104L28.4172 139.478Z" fill="#8CD0F3"/>
<path d="M219.564 178.83C210.032 178.83 202.305 171.103 202.305 161.571C202.305 152.04 210.032 144.312 219.564 144.312C229.096 144.312 236.823 152.04 236.823 161.571C236.823 171.103 229.096 178.83 219.564 178.83Z" fill="#182A7C"/>
<path d="M205.72 161.557C205.714 165.119 207.076 168.546 209.524 171.132C211.973 173.718 215.321 175.265 218.878 175.453C222.434 175.641 225.927 174.455 228.634 172.142C231.342 169.828 233.057 166.563 233.426 163.021C233.795 159.479 232.79 155.93 230.617 153.108C228.444 150.286 225.271 148.407 221.752 147.858C218.234 147.308 214.638 148.132 211.709 150.158C208.78 152.183 206.741 155.257 206.013 158.743C205.82 159.669 205.722 160.612 205.72 161.557Z" fill="#802258"/>
<path opacity="0.5" d="M219.585 173.483C213.013 173.483 207.685 168.142 207.685 161.554C207.685 154.966 213.013 149.625 219.585 149.625C226.157 149.625 231.484 154.966 231.484 161.554C231.484 168.142 226.157 173.483 219.585 173.483Z" fill="#18218A"/>
<path d="M215.603 148.239V148.743L219.564 161.856L222.742 148.022C220.384 147.472 217.923 147.547 215.603 148.239Z" fill="#802258"/>
<path d="M215.632 174.881C217.901 175.553 220.303 175.636 222.613 175.121L219.567 161.855L215.632 174.881Z" fill="#802258"/>
<path d="M205.72 161.558C205.718 163.004 205.942 164.442 206.383 165.82H206.439L219.552 161.86L205.99 158.746C205.806 159.672 205.715 160.614 205.72 161.558Z" fill="#802258"/>
<path d="M219.564 161.857L232.677 165.817H232.78C233.51 163.528 233.641 161.089 233.158 158.734L219.564 161.857Z" fill="#802258"/>
<path d="M219.584 163.076C218.744 163.076 218.063 162.395 218.063 161.555C218.063 160.714 218.744 160.033 219.584 160.033C220.425 160.033 221.106 160.714 221.106 161.555C221.106 162.395 220.425 163.076 219.584 163.076Z" fill="#182A7C"/>
<path d="M64.2806 178.83C54.7488 178.83 47.0217 171.103 47.0217 161.571C47.0217 152.04 54.7488 144.312 64.2806 144.312C73.8125 144.312 81.5396 152.04 81.5396 161.571C81.5396 171.103 73.8125 178.83 64.2806 178.83Z" fill="#182A7C"/>
<path d="M50.434 161.557C50.4278 165.119 51.7896 168.546 54.2383 171.132C56.6869 173.718 60.0353 175.265 63.5917 175.453C67.1481 175.641 70.6407 174.455 73.3482 172.142C76.0557 169.828 77.7711 166.563 78.1401 163.021C78.509 159.479 77.5034 155.93 75.3309 153.108C73.1584 150.286 69.9849 148.407 66.4662 147.858C62.9475 147.308 59.3522 148.132 56.4232 150.158C53.4941 152.183 51.4551 155.257 50.7272 158.743C50.5341 159.669 50.4359 160.612 50.434 161.557Z" fill="#802258"/>
<path opacity="0.5" d="M64.298 173.483C57.7259 173.483 52.3982 168.142 52.3982 161.554C52.3982 154.966 57.7259 149.625 64.298 149.625C70.87 149.625 76.1978 154.966 76.1978 161.554C76.1978 168.142 70.87 173.483 64.298 173.483Z" fill="#18218A"/>
<path d="M60.3198 148.239V148.743L64.2805 161.856L67.4585 148.022C65.1005 147.472 62.64 147.547 60.3198 148.239Z" fill="#802258"/>
<path d="M60.3463 174.881C62.6149 175.553 65.0172 175.636 67.3267 175.121L64.2806 161.855L60.3463 174.881Z" fill="#802258"/>
<path d="M50.4339 161.557C50.4319 163.003 50.6554 164.441 51.0964 165.819H51.1639L64.2803 161.856L50.7182 158.742C50.5287 159.668 50.4334 160.611 50.4339 161.557Z" fill="#802258"/>
<path d="M64.2802 161.857L77.3937 165.817H77.4963C78.2267 163.528 78.3569 161.089 77.8745 158.734L64.2802 161.857Z" fill="#802258"/>
<path d="M64.2983 163.076C63.4579 163.076 62.7767 162.395 62.7767 161.555C62.7767 160.714 63.4579 160.033 64.2983 160.033C65.1386 160.033 65.8198 160.714 65.8198 161.555C65.8198 162.395 65.1386 163.076 64.2983 163.076Z" fill="#182A7C"/>
<path opacity="0.2" d="M165.313 122.844L169.649 131.583H174.442L171.238 126.069C169.47 125.043 167.479 123.949 165.313 122.844Z" fill="white"/>
<path opacity="0.2" d="M153.416 117.6L157.734 131.575H164.108L158.919 119.807C157.148 119.039 155.307 118.3 153.416 117.6Z" fill="white"/>
<path opacity="0.2" d="M108.52 113.691L117.928 130.375L118.35 130.404C119.523 130.48 120.61 130.53 121.534 130.548L113.07 113.418L111.932 113.48C110.865 113.538 109.716 113.609 108.52 113.691Z" fill="white"/>
<path opacity="0.2" d="M179.707 131.525L185.078 168.521L140.22 167.538L132.856 131.687L179.707 131.525Z" stroke="white" stroke-width="0.29317" stroke-miterlimit="10"/>
<path opacity="0.5" d="M96.3652 170.319C97.0131 170.613 98.5406 171.386 98.7604 172.603H198.913L200.965 172.586C200.529 171.853 200.138 171.096 199.793 170.316L96.3652 170.319Z" fill="#18218A"/>
<path d="M182.953 197.054C182.27 196.418 181.628 195.667 181.428 194.755C181.229 193.844 181.619 192.747 182.493 192.41C183.469 192.035 184.515 192.703 185.307 193.398C186.098 194.093 187.007 194.864 188.042 194.717C187.509 194.234 187.111 193.621 186.885 192.937C186.659 192.254 186.615 191.524 186.755 190.818C186.801 190.527 186.924 190.253 187.113 190.026C187.655 189.44 188.64 189.695 189.288 190.153C191.34 191.618 191.927 194.412 191.941 196.939C192.15 196.028 191.974 195.078 191.979 194.143C191.985 193.207 192.24 192.173 193.029 191.668C193.52 191.404 194.072 191.275 194.63 191.293C195.559 191.258 196.594 191.352 197.227 192.032C198.016 192.876 197.814 194.292 197.125 195.221C196.436 196.151 195.395 196.734 194.436 197.376C193.667 197.835 193.01 198.461 192.516 199.209C192.457 199.313 192.409 199.423 192.372 199.537H186.55C185.244 198.875 184.034 198.04 182.953 197.054Z" fill="#FF3838"/>
<path d="M61.2608 201.984C60.7235 201.546 60.3319 200.955 60.138 200.29C59.9914 199.615 60.2787 198.809 60.9237 198.563C61.6449 198.287 62.4159 198.786 62.9993 199.293C63.5827 199.8 64.2541 200.375 65.0192 200.266C64.626 199.91 64.3318 199.457 64.1653 198.953C63.9988 198.449 63.9658 197.911 64.0694 197.39C64.1025 197.174 64.1937 196.972 64.3332 196.804C64.7349 196.376 65.459 196.561 65.9398 196.898C67.4643 197.971 67.8894 200.04 67.8982 201.905C68.0506 201.234 67.9216 200.533 67.9275 199.853C67.9333 199.173 68.121 198.387 68.7015 198.029C69.0614 197.836 69.4657 197.74 69.8741 197.751C70.5602 197.724 71.3224 197.795 71.7915 198.296C72.3778 198.918 72.2224 199.964 71.7153 200.641C71.2081 201.319 70.44 201.756 69.7305 202.23C69.1619 202.569 68.6768 203.031 68.3115 203.582C68.2686 203.658 68.2332 203.739 68.206 203.822H63.9111C62.9488 203.332 62.0572 202.714 61.2608 201.984Z" fill="#FF3838"/>
<path d="M42.2046 211.31C41.6673 210.872 41.2758 210.281 41.0818 209.616C40.9352 208.942 41.2225 208.135 41.8675 207.889C42.5887 207.614 43.3597 208.112 43.9431 208.619C44.5266 209.126 45.1979 209.701 45.9631 209.592C45.5698 209.236 45.2756 208.784 45.1091 208.28C44.9427 207.776 44.9096 207.237 45.0132 206.716C45.0463 206.501 45.1375 206.298 45.2771 206.13C45.6787 205.702 46.4028 205.887 46.8836 206.224C48.4081 207.297 48.8332 209.367 48.842 211.231C48.9945 210.56 48.8655 209.859 48.8713 209.179C48.8772 208.499 49.0648 207.713 49.6453 207.356C50.0053 207.162 50.4095 207.066 50.818 207.077C51.504 207.051 52.2662 207.121 52.7353 207.622C53.3216 208.244 53.1663 209.29 52.6591 209.968C52.1519 210.645 51.3838 211.082 50.6743 211.557C50.1057 211.895 49.6207 212.357 49.2554 212.908C49.2124 212.985 49.1771 213.065 49.1498 213.149H44.8549C43.8926 212.658 43.0011 212.04 42.2046 211.31Z" fill="#FF3838"/>
<path d="M97.3003 191.713C97.3003 191.713 98.3235 192.27 98.7896 189.116C99.0828 187.064 99.9359 182.833 100.496 180.086L100.566 179.737C100.406 179.687 100.248 179.628 100.094 179.561C100.094 179.561 103.354 166.955 102.61 164.164C101.865 161.373 102.61 156.372 102.61 156.372L104.565 149.787C104.565 149.787 109.408 148.116 111.27 147.653C113.132 147.189 118.347 143.941 118.347 143.941C118.257 144.045 118.173 144.154 118.095 144.267L118.303 144.141C118.683 143.785 119.027 143.392 119.329 142.968C118.289 141.861 117.615 140.461 117.4 138.957C116.704 137.638 116.376 136.155 116.449 134.665C116.522 133.176 116.995 131.733 117.816 130.488C117.5 130.091 117.258 129.64 117.104 129.157C117.042 128.936 117.015 128.706 117.025 128.476C116.991 128.109 117.071 127.739 117.253 127.418C117.435 127.097 117.712 126.839 118.045 126.679C118.267 126.587 118.506 126.54 118.747 126.543C118.988 126.545 119.226 126.597 119.446 126.694C119.86 126.882 120.185 127.233 120.637 127.327C121.39 127.483 122.035 126.879 122.627 126.43C123.548 125.744 124.646 125.337 125.791 125.257C126.288 125.202 126.791 125.268 127.256 125.451C127.699 125.701 128.107 126.008 128.47 126.363C129.813 127.445 131.695 127.746 133.381 128.336C133.703 128.447 134.061 128.629 134.12 128.922C134.132 128.98 134.132 129.04 134.12 129.098C134.133 129.173 134.127 129.249 134.102 129.321C137.245 129.849 140.32 132.235 140.32 132.235L140.836 132.713C141.005 132.622 141.196 132.582 141.388 132.598C141.579 132.614 141.761 132.685 141.912 132.804L142.95 133.619C143.137 133.766 143.265 133.976 143.308 134.21C143.351 134.445 143.307 134.687 143.184 134.891L150.775 141.927L150.939 142.08V142.053C150.939 142.053 156.802 146.506 156.802 149.658C156.802 151.936 155.043 153.34 154.084 153.947C154.944 154.756 155.594 155.762 155.978 156.879V156.908V156.949V156.981V157.017V157.046V157.078V157.107V157.137V157.163V157.19V157.213V157.239V157.26V157.292V157.321V157.339V157.357V157.486V157.521V157.591V157.641V157.691L156.002 157.82V157.873L156.016 157.961V157.996V158.081V158.142L156.037 158.26L156.063 158.406V158.436L156.084 158.559V158.617L156.107 158.752V158.787L156.134 158.94V159.007L156.201 159.391L156.236 159.599V159.635L156.274 159.849V159.878L156.313 160.095V160.112L156.354 160.341V160.391L156.395 160.617V160.667L156.433 160.889V160.916L156.477 161.168V161.215L156.576 161.778L156.626 162.071V162.115L156.676 162.408V162.428L156.785 163.015V163.065L156.837 163.358V163.399L156.952 164.017V164.044L157.01 164.358V164.384L157.128 165.023V165.064L157.186 165.381V165.404L157.309 166.058V166.093L157.371 166.416V166.439L157.497 167.102V167.128L157.558 167.45V167.477L158.095 168.139V168.169L158.159 168.488V168.506L158.291 169.157V169.174L158.356 169.491V169.509L158.485 170.13V170.156L158.546 170.45V170.476L158.673 171.062V171.083L158.734 171.376V171.405L158.857 171.959V171.974L158.916 172.235V172.261C158.957 172.437 158.997 172.607 159.036 172.771L159.095 173.012V173.032C159.134 173.193 159.172 173.346 159.209 173.493L159.265 173.704V173.727L159.318 173.93C159.552 174.809 159.757 175.395 159.904 175.533C160.052 175.689 160.169 175.872 160.247 176.073L160.27 176.131L160.294 176.196L160.314 176.26L160.411 176.348L160.432 176.416L160.449 176.477L160.467 176.548V176.612L160.481 176.682V176.747C160.481 176.794 160.489 176.841 160.505 176.888V176.946V177.025V177.087V177.166V177.228V177.307V177.368V177.448V177.506C160.505 177.603 160.505 177.697 160.505 177.799C160.505 177.817 160.505 177.835 160.505 177.855C160.505 177.876 160.505 177.905 160.505 177.931C160.505 177.958 160.505 177.969 160.505 177.987C160.505 178.005 160.505 178.037 160.505 178.06C160.505 178.084 160.505 178.095 160.505 178.116C160.505 178.137 160.505 178.163 160.505 178.186V178.239C160.505 178.263 160.505 178.286 160.505 178.309V178.356C160.505 178.399 160.505 178.441 160.505 178.482V178.946V179.01V179.195L159.625 179.462C159.625 179.462 159.183 179.705 158.5 180.022C158.596 182.98 158.869 186.984 159.611 189.435C161.264 189.52 165.348 189.693 166.087 189.397C167.019 189.025 172.979 188.098 171.115 192.364C170.335 194.152 168.637 195.501 166.931 196.468C167.142 196.538 167.358 196.594 167.576 196.636C169.095 196.929 169.517 197.436 169.458 197.958C169.567 198.837 168.072 199.819 167.948 199.881C167.761 199.975 161.431 200.995 159.939 200.529C158.447 200.063 152.396 198.952 152.396 198.952C152.396 198.952 152.396 198.884 152.396 198.767C152.396 198.767 152.478 196.943 152.707 195.214C152.02 195.114 151.273 195.023 150.546 194.967C150.452 195.406 150.26 195.817 149.984 196.17C149.707 196.523 149.354 196.809 148.951 197.005C144.946 199.057 143.642 196.263 143.642 196.263C143.642 196.263 138.227 197.304 135.201 196.556C134.885 196.85 134.615 197.058 134.424 197.198C133.442 197.905 130.798 198.389 127.84 198.424C127.053 198.502 126.259 198.479 125.477 198.356C124.171 198.27 122.876 198.067 121.607 197.75C118.045 196.826 117.262 193.513 117.092 192.009C116.952 191.968 116.852 191.822 116.799 191.546C116.729 191.396 116.687 191.234 116.676 191.068C116.598 190.388 116.471 189.713 116.295 189.051L111.897 189.297C109.933 192.862 108.197 195.697 108.197 195.697L105.219 195.325C106.544 194.265 107.705 193.014 108.664 191.614C110.153 189.388 110.153 178.714 110.153 178.714L109.986 172.214V172.282V171.968C109.71 173.894 107.526 179.482 107.28 179.564C107.101 179.623 106.925 179.676 106.752 179.725L106.594 180.142C105.351 183.437 102.196 191.869 101.973 193.2C101.68 194.871 90.0532 195.519 87.4469 194.683C84.8406 193.847 97.3003 191.713 97.3003 191.713ZM138.834 154.797L143.096 161.2C144.627 158.562 146.222 156.134 147.664 154.528C143.882 154.654 139.523 154.788 138.834 154.797ZM139.482 138.38C139.316 138.458 139.133 138.488 138.951 138.468C138.769 138.448 138.597 138.378 138.453 138.265L138.089 137.972C137.903 137.828 137.776 137.622 137.73 137.391C137.685 137.161 137.723 136.922 137.84 136.717L137.623 136.503C136.122 136.249 134.641 135.89 133.19 135.428C133.135 136.751 132.763 138.042 132.105 139.192C131.976 139.928 131.735 140.64 131.39 141.303C132.059 141.247 132.786 141.209 133.48 141.215C134.087 141.202 134.694 141.241 135.295 141.329C137.529 141.701 137.811 145.782 137.811 145.782C137.811 145.782 142.299 147.36 144.996 147.415C145.338 147.417 145.678 147.366 146.005 147.266L146.277 147.248L145.911 146.245C145.911 146.245 146.069 146.295 146.33 146.348C146.246 146.221 146.158 146.092 146.066 145.961C144.36 143.513 141.405 140.359 139.482 138.386V138.38ZM148.705 187.911C149.048 188.498 149.356 189.105 149.628 189.728C150.687 189.934 152.129 190.048 152.894 189.394C153.24 189.111 153.673 188.959 154.12 188.963L154.102 188.928C153.574 187.917 153.126 185.65 152.774 183.305C151.068 183.305 149.446 181.877 149.446 181.877L147.298 182.613L147.218 182.763L147.166 182.859L147.081 183.018L147.028 183.117L146.943 183.273L146.887 183.373L146.802 183.525L146.746 183.625L146.664 183.774L146.609 183.874L146.524 184.023L146.468 184.12L146.383 184.267L146.33 184.361L146.245 184.507L146.192 184.598L146.11 184.742L146.057 184.833L145.972 184.976L145.923 185.058L145.838 185.199L145.788 185.281L145.703 185.422L145.659 185.495L145.571 185.639L145.539 185.692C145.386 185.941 145.245 186.178 145.102 186.401L145.081 186.433L144.999 186.562L144.964 186.618L144.891 186.735L144.85 186.797L144.782 186.902L144.741 186.97L144.68 187.066L144.636 187.134L144.577 187.225L144.536 187.289L144.483 187.371L144.442 187.436L144.392 187.512L144.351 187.577L144.304 187.647L144.263 187.709C145.731 187.951 147.221 188.019 148.705 187.911Z" fill="url(#paint0_linear_102_1084)"/>
<path d="M88.4786 194.154C91.0203 194.972 102.369 194.336 102.642 192.688C102.859 191.378 105.934 183.131 107.148 179.906L107.634 178.616L101.733 177.344C101.733 177.344 101.516 178.379 101.217 179.853C100.672 182.545 99.8477 186.699 99.5545 188.692C99.1001 191.779 98.0887 191.234 98.0887 191.234C98.0887 191.234 85.9456 193.336 88.4786 194.154Z" fill="#FFBDC6"/>
<path d="M120.54 140.58C120.54 140.58 120.995 143.304 117.089 145.857C113.184 148.411 116.544 157.569 116.544 157.569L119.432 157.731C121.266 157.833 123.068 157.221 124.46 156.023C125.852 154.824 126.725 153.133 126.896 151.304C126.896 151.304 125.263 148.666 128.259 141.861L120.54 140.58Z" fill="#FFBDC6"/>
<path d="M137.415 137.231C137.415 137.231 143.035 142.71 145.647 146.486C145.956 146.924 146.239 147.381 146.494 147.853C148.4 151.485 152.832 145.58 151.299 143.54L150.241 142.552L140.05 133.053C140.05 133.053 133.058 127.606 129.52 131.511C125.981 135.416 137.415 137.231 137.415 137.231Z" fill="#FFBDC6"/>
<path d="M124.931 143.994C120.419 143.994 116.761 140.336 116.761 135.823C116.761 131.31 120.419 127.652 124.931 127.652C129.444 127.652 133.102 131.31 133.102 135.823C133.102 140.336 129.444 143.994 124.931 143.994Z" fill="#A66477"/>
<path d="M158.203 188.978C158.203 188.978 164.286 189.342 165.195 188.978C166.104 188.615 171.912 187.709 170.085 191.886C168.259 196.064 161.369 197.788 161.369 197.788L156.385 196.515L158.203 188.978Z" fill="#7679B4"/>
<path opacity="0.05" d="M158.203 188.978C158.203 188.978 164.286 189.342 165.195 188.978C166.104 188.615 171.912 187.709 170.085 191.886C168.259 196.064 161.369 197.788 161.369 197.788L156.385 196.515L158.203 188.978Z" fill="black"/>
<path d="M136.506 171.094L124.295 176.054L117.35 190.806C117.35 190.806 117.259 195.981 121.798 197.162C126.336 198.344 132.692 197.799 134.328 196.617C135.964 195.436 142.68 188.446 142.68 188.446L136.506 171.094Z" fill="#7679B4"/>
<path opacity="0.05" d="M137.336 171.094L126.767 175.054L120.754 186.86C120.754 186.86 120.675 191.003 124.603 191.947C128.532 192.891 134.035 192.454 135.451 191.51C136.867 190.566 142.68 184.969 142.68 184.969L137.336 171.094Z" fill="black"/>
<path d="M147.854 188.978C147.854 188.978 151.032 190.068 152.302 188.978C153.571 187.887 155.843 189.25 155.843 189.25L154.841 195.152C154.841 195.152 150.302 194.152 147.849 194.425L147.854 188.978Z" fill="#FFBDC6"/>
<path opacity="0.05" d="M147.854 188.978C147.854 188.978 151.032 190.068 152.302 188.978C153.571 187.887 155.843 189.25 155.843 189.25L154.841 195.152C154.841 195.152 150.302 194.152 147.849 194.425L147.854 188.978Z" fill="black"/>
<path d="M146.045 182.625L148.945 181.625C148.945 181.625 152.123 184.44 154.222 182.079C156.321 179.719 152.316 169.913 152.316 169.913L148.051 163.012L144.964 172.727L142.149 177.447L146.045 182.625Z" fill="#565388"/>
<path opacity="0.05" d="M146.045 182.625L148.945 181.625C148.945 181.625 152.123 184.44 154.222 182.079C156.321 179.719 152.316 169.913 152.316 169.913L148.051 163.012L144.964 172.727L142.149 177.447L146.045 182.625Z" fill="black"/>
<path d="M118.35 182.078L111.812 182.984L110.54 188.976L118.62 188.522L118.35 182.078Z" fill="#565388"/>
<path opacity="0.05" d="M118.35 182.078L111.812 182.984L110.54 188.976L118.62 188.522L118.35 182.078Z" fill="black"/>
<path opacity="0.1" d="M127.517 149.215C127.517 149.215 124.794 159.655 116.084 152.12L113.723 182.079C113.723 182.079 116.629 186.708 117.083 190.874C117.538 195.04 125.436 177.975 130.156 177.893C134.876 177.811 139.552 171.22 139.552 171.22L134.24 160.279L127.517 149.215Z" fill="black"/>
<path d="M127.426 148.941C127.426 148.941 124.703 159.381 115.993 151.847L113.633 181.806C113.633 181.806 116.538 186.435 116.992 190.601C117.447 194.767 125.345 177.701 130.065 177.619C134.785 177.537 139.461 170.947 139.461 170.947L134.149 160.006L127.426 148.941Z" fill="#F2F1F2"/>
<path opacity="0.1" d="M128.88 142.223C128.88 142.223 132.692 141.587 134.873 141.95C137.054 142.314 137.324 146.307 137.324 146.307C137.324 146.307 143.498 148.485 145.585 147.772C145.585 147.772 155.846 147.045 155.846 150.132C155.846 153.22 152.574 154.653 152.574 154.653C152.574 154.653 138.329 155.134 138.23 155.108C134.961 154.199 138.321 155.108 138.321 155.108L144.222 164.005L138.775 171.54L132.964 167.274C132.964 167.274 132.237 163.278 130.326 161.282C128.965 159.854 127.186 153.428 126.28 149.872C126.09 149.123 126.05 148.343 126.163 147.579C126.276 146.814 126.54 146.08 126.94 145.418L128.88 142.223Z" fill="black"/>
<path opacity="0.1" d="M145.647 146.485C145.956 146.923 146.239 147.379 146.494 147.851C148.4 151.484 152.832 145.579 151.299 143.539L150.241 142.551C150.628 147.236 146.814 146.737 145.647 146.485Z" fill="black"/>
<path opacity="0.1" d="M138.321 154.754H138.423C138.423 154.754 135.052 153.845 138.321 154.754Z" fill="black"/>
<path d="M129.153 142.223C129.153 142.223 132.965 141.587 135.146 141.95C137.327 142.314 137.597 146.307 137.597 146.307C137.597 146.307 143.771 148.485 145.858 147.772L145.495 146.773C145.495 146.773 151.03 148.497 150.396 142.677C150.396 142.677 156.116 147.034 156.116 150.121C156.116 153.208 152.847 154.653 152.847 154.653C152.847 154.653 138.602 155.134 138.503 155.108C135.234 154.199 138.593 155.108 138.593 155.108L144.495 164.005L139.048 171.54L133.237 167.274C133.237 167.274 132.51 163.278 130.599 161.282C129.238 159.854 127.459 153.428 126.553 149.872C126.362 149.123 126.323 148.343 126.436 147.579C126.549 146.814 126.813 146.08 127.213 145.418L129.153 142.223Z" fill="#565388"/>
<path opacity="0.1" d="M110.449 171.73V172.229C110.488 172.065 110.488 171.894 110.449 171.73Z" fill="black"/>
<path opacity="0.1" d="M101.217 179.865C103.146 180.459 105.208 180.478 107.148 179.918L107.634 178.628L101.733 177.355C101.733 177.355 101.519 178.399 101.217 179.865Z" fill="black"/>
<path opacity="0.1" d="M118.892 144.492C118.892 144.492 113.809 147.67 111.991 148.125C110.173 148.579 105.453 150.212 105.453 150.212L103.548 156.662C103.548 156.662 102.821 161.563 103.548 164.284C104.275 167.005 111.082 172.182 110.719 171.364L110.9 178.535C110.9 178.535 110.9 188.975 109.434 191.141C107.969 193.308 112.205 189.007 112.205 189.007C112.205 189.007 117.335 181.426 117.969 176.615C118.602 171.804 117.608 153.299 117.608 153.299L118.517 152.027C118.517 152.027 116.623 147.125 118.892 144.492Z" fill="black"/>
<path d="M118.62 144.492C118.62 144.492 113.536 147.67 111.718 148.125C109.901 148.579 105.181 150.212 105.181 150.212L103.275 156.662C103.275 156.662 102.548 161.563 103.275 164.284C104.002 167.005 100.824 179.356 100.824 179.356C100.824 179.356 103.756 180.71 107.816 179.356C108.089 179.265 110.813 172.185 110.455 171.367L110.637 178.538C110.637 178.538 110.637 188.978 109.171 191.144C108.236 192.514 107.104 193.738 105.811 194.777L108.716 195.14C108.716 195.14 117.078 181.443 117.714 176.641C118.35 171.839 117.35 153.308 117.35 153.308L118.259 152.035C118.259 152.035 116.35 147.125 118.62 144.492Z" fill="#565388"/>
<path d="M143.407 188.073C143.407 188.073 149.49 179.278 149.218 175.174C149.218 175.174 149.945 180.803 150.76 181.166C151.575 181.53 159.749 178.985 159.749 178.985C159.749 178.985 160.112 176.347 159.203 175.444C158.294 174.541 155.48 157.739 155.48 157.739C155.48 157.739 154.48 153.201 150.124 152.928C145.767 152.656 135.961 174.808 135.961 174.808C135.961 174.808 134.51 188.073 143.407 188.073Z" fill="#7679B4"/>
<path d="M157.749 176.088C157.749 176.088 157.567 188.797 159.836 190.887C162.105 192.977 153.208 194.065 153.208 194.065C153.208 194.065 154.75 190.978 153.48 188.527C152.211 186.076 151.393 176.088 151.393 176.088H157.749Z" fill="#FFBDC6"/>
<path opacity="0.05" d="M157.297 190.713C157.297 190.713 158.206 188.443 160.657 190.258C160.657 190.258 162.835 195.342 166.65 196.069C170.464 196.796 167.195 198.974 167.013 199.065C166.831 199.156 160.657 200.156 159.206 199.701C157.755 199.247 151.853 198.159 151.853 198.159C151.853 198.159 152.126 192.167 153.026 191.709C153.926 191.252 153.483 194.427 157.297 190.713Z" fill="black"/>
<path d="M157.297 190.886C157.297 190.886 158.206 188.617 160.657 190.432C160.657 190.432 162.835 195.516 166.65 196.243C170.464 196.97 167.195 199.148 167.013 199.239C166.831 199.33 160.657 200.329 159.206 199.875C157.755 199.421 151.85 198.336 151.85 198.336C151.85 198.336 152.123 192.344 153.023 191.886C153.923 191.429 153.483 194.607 157.297 190.886Z" fill="#7679B4"/>
<path d="M140.203 133.839C139.436 135.03 138.611 136.182 137.729 137.29C137.644 137.388 137.581 137.502 137.542 137.626C137.504 137.749 137.49 137.879 137.503 138.008C137.516 138.137 137.555 138.261 137.617 138.375C137.68 138.488 137.764 138.588 137.866 138.667L138.221 138.946C138.322 139.025 138.439 139.083 138.563 139.117C138.687 139.15 138.817 139.158 138.945 139.141C139.072 139.123 139.195 139.08 139.305 139.013C139.415 138.947 139.511 138.859 139.587 138.755C140.382 137.654 141.376 136.712 142.519 135.979C142.649 135.898 142.758 135.786 142.837 135.654C142.915 135.522 142.961 135.373 142.969 135.219C142.978 135.066 142.949 134.912 142.886 134.772C142.823 134.632 142.727 134.509 142.607 134.414L141.595 133.616C141.491 133.534 141.371 133.474 141.243 133.441C141.115 133.408 140.981 133.401 140.85 133.422C140.719 133.443 140.594 133.491 140.483 133.563C140.371 133.634 140.276 133.728 140.203 133.839Z" fill="#565388"/>
<path opacity="0.1" d="M119.487 143.806C120.66 142.155 120.437 140.848 120.437 140.848L128.162 142.132C127.626 143.329 127.184 144.567 126.843 145.834C125.549 146.212 124.176 146.223 122.877 145.865C121.578 145.506 120.404 144.793 119.487 143.806Z" fill="black"/>
<path d="M124.885 145.852C120.874 145.852 117.623 142.601 117.623 138.59C117.623 134.579 120.874 131.328 124.885 131.328C128.895 131.328 132.146 134.579 132.146 138.59C132.146 142.601 128.895 145.852 124.885 145.852Z" fill="#FFBDC6"/>
<path opacity="0.1" d="M128.08 134.806C127.394 134.692 126.784 134.29 126.09 134.255C125.21 134.211 124.416 134.774 123.797 135.355C123.178 135.935 122.577 136.598 121.727 136.85C121.184 136.977 120.623 137.015 120.068 136.961C119.759 136.977 119.453 136.899 119.188 136.738C119.056 136.615 118.955 136.461 118.895 136.29C118.658 135.744 118.538 135.154 118.543 134.559C118.547 133.964 118.676 133.376 118.922 132.833C118.99 132.721 119.019 132.589 119.004 132.458C118.977 132.38 118.934 132.309 118.878 132.25C118.291 131.558 117.673 130.866 117.435 130.028C117.198 129.189 117.488 128.157 118.353 127.785C118.569 127.692 118.801 127.644 119.036 127.644C119.271 127.644 119.503 127.692 119.719 127.785C120.124 127.97 120.437 128.313 120.892 128.404C121.628 128.556 122.258 127.964 122.833 127.524C123.728 126.853 124.798 126.454 125.914 126.375C126.402 126.319 126.896 126.384 127.353 126.565C127.78 126.807 128.174 127.103 128.526 127.445C129.836 128.503 131.672 128.799 133.313 129.377C133.627 129.488 133.976 129.653 134.035 129.963C134.093 130.274 133.741 130.588 133.39 130.723C133.038 130.857 132.633 130.945 132.399 131.218C132.106 131.57 132.199 132.068 132.147 132.511C132.038 133.39 131.267 133.868 130.414 134.123C129.707 134.349 128.781 134.924 128.08 134.806Z" fill="black"/>
<path d="M128.08 134.623C127.394 134.508 126.785 134.107 126.09 134.072C125.21 134.028 124.416 134.591 123.797 135.171C123.179 135.752 122.578 136.414 121.727 136.666C121.184 136.794 120.623 136.831 120.068 136.778C119.759 136.793 119.453 136.716 119.188 136.555C119.056 136.432 118.955 136.278 118.895 136.106C118.658 135.56 118.538 134.971 118.543 134.375C118.547 133.78 118.676 133.192 118.922 132.65C118.99 132.537 119.019 132.405 119.004 132.275C118.977 132.197 118.934 132.126 118.878 132.066C118.291 131.375 117.673 130.683 117.435 129.844C117.198 129.006 117.488 127.974 118.353 127.601C118.569 127.508 118.801 127.461 119.036 127.461C119.271 127.461 119.503 127.508 119.719 127.601C120.124 127.786 120.437 128.129 120.892 128.22C121.628 128.372 122.258 127.78 122.833 127.341C123.719 126.685 124.773 126.295 125.873 126.215C126.361 126.159 126.855 126.224 127.312 126.405C127.739 126.647 128.133 126.943 128.485 127.285C129.795 128.343 131.631 128.639 133.272 129.217C133.586 129.328 133.935 129.492 133.994 129.803C134.052 130.114 133.7 130.428 133.349 130.562C132.997 130.697 132.592 130.785 132.358 131.058C132.064 131.41 132.158 131.908 132.106 132.351C131.997 133.23 131.226 133.708 130.373 133.963C129.707 134.165 128.781 134.74 128.08 134.623Z" fill="#A66477"/>
<path opacity="0.05" d="M133.94 169.559C133.94 169.559 128.754 170.438 127.458 173.238C126.163 176.038 118.37 183.613 118.37 183.613" fill="black"/>
<g opacity="0.05">
<path d="M150.578 180.534C151.396 180.898 159.567 178.356 159.567 178.356C159.667 177.566 159.658 176.766 159.54 175.979C160.009 177.11 159.748 178.992 159.748 178.992C159.748 178.992 151.578 181.534 150.76 181.171C150.49 181.05 150.229 180.353 150.001 179.47C150.182 180.036 150.376 180.452 150.578 180.534Z" fill="black"/>
<path d="M155.31 157.184C155.377 157.368 155.433 157.556 155.48 157.746C155.48 157.746 157.45 169.511 158.625 173.871C157.538 170.332 155.486 158.23 155.31 157.184Z" fill="black"/>
<path d="M143.225 187.437C143.225 187.437 149.309 178.641 149.036 174.537C149.036 174.537 149.101 175.047 149.215 175.768C148.939 180.06 143.407 188.076 143.407 188.076C139.177 188.076 137.286 185.079 136.468 181.934C137.371 184.83 139.279 187.437 143.225 187.437Z" fill="black"/>
</g>
<path d="M158.895 179.252C158.895 179.252 153.349 182.307 151.349 180.853C149.35 179.399 150.622 177.13 150.622 177.13L152.167 174.588H157.342L159.065 177.584L158.895 179.252Z" fill="#7679B4"/>
<path d="M121.07 191.25C121.07 191.25 120.707 183.988 129.968 184.079C139.229 184.17 130.332 184.079 130.332 184.079C130.332 184.079 133.964 182.988 138.502 185.545C143.041 188.101 148.218 187.541 148.218 187.541C148.218 187.541 152.396 194.442 148.491 196.439C144.586 198.435 143.316 195.697 143.316 195.697C143.316 195.697 135.327 197.239 133.51 195.152C132.212 196.438 130.565 197.314 128.774 197.671C126.982 198.029 125.125 197.852 123.433 197.163C123.433 197.163 118.892 195.152 121.07 191.25Z" fill="#7679B4"/>
</g>
<defs>
<linearGradient id="paint0_linear_102_1084" x1="129.288" y1="200.646" x2="129.288" y2="125.252" gradientUnits="userSpaceOnUse">
<stop stop-color="#808080" stop-opacity="0.25"/>
<stop offset="0.54" stop-color="#808080" stop-opacity="0.12"/>
<stop offset="1" stop-color="#808080" stop-opacity="0.1"/>
</linearGradient>
<clipPath id="clip0_102_1084">
<rect width="290.332" height="213.143" fill="white" transform="matrix(-1 0 0 1 290.332 0)"/>
</clipPath>
</defs>
</svg>
