<svg width="362" height="194" viewBox="0 0 362 194" fill="none" xmlns="http://www.w3.org/2000/svg">
<g clip-path="url(#clip0_102_1191)">
<path opacity="0.1" d="M181 193.468C280.964 193.468 362 168.186 362 136.999C362 105.811 280.964 80.5293 181 80.5293C81.0365 80.5293 0 105.811 0 136.999C0 168.186 81.0365 193.468 181 193.468Z" fill="#FF3838"/>
<g opacity="0.8">
<path d="M131.54 12.0898C134.608 16.3928 136.962 28.9244 137.618 32.7005L143.103 32.5886C142.819 29.3444 136.439 16.1487 134.665 12.528C133.678 12.3733 132.624 12.2221 131.54 12.0898Z" fill="#65617D"/>
<path d="M63.0842 9.29057L63.0195 12.7129L65.449 12.7588L65.5136 9.33645L63.0842 9.29057Z" fill="#DCE0ED"/>
<path opacity="0.1" d="M63.084 9.29102L63.063 10.4053C63.2337 10.4576 63.4111 10.485 63.5896 10.4866L65.4914 10.5063L65.5135 9.3369L63.084 9.29102Z" fill="black"/>
<path d="M66.704 0.6356L64.4101 0.592278C63.8623 0.582036 63.3239 0.735475 62.8638 1.03297C62.4036 1.33046 62.0427 1.75847 61.8272 2.26223C61.1242 3.90319 60.5059 6.52201 61.9509 9.17272C62.1124 9.46887 62.3499 9.71661 62.6389 9.89038C62.928 10.0642 63.2582 10.1577 63.5955 10.1613L66.5235 10.1915L66.704 0.6356Z" fill="#DCE0ED"/>
<path d="M69.0701 5.46131C69.1199 2.82251 68.0605 0.66257 66.7038 0.636947C65.3472 0.611324 64.207 2.72972 64.1571 5.36852C64.1073 8.00732 65.1667 10.1673 66.5234 10.1929C67.88 10.2185 69.0202 8.10011 69.0701 5.46131Z" fill="#F0F0F4"/>
<path d="M84.665 9.73803L84.6084 12.7344L87.0379 12.7803L87.0945 9.78391L84.665 9.73803Z" fill="#DCE0ED"/>
<path opacity="0.1" d="M84.665 9.73828L84.647 10.6906C84.8177 10.7429 84.9951 10.7703 85.1736 10.7719L87.0754 10.7916L87.0944 9.78417L84.665 9.73828Z" fill="black"/>
<path d="M88.285 1.08482L85.9912 1.0415C85.4434 1.03126 84.9049 1.1847 84.4448 1.48219C83.9847 1.77968 83.6238 2.2077 83.4083 2.71146C82.7052 4.35241 82.087 6.97123 83.532 9.62194C83.6934 9.91809 83.9309 10.1658 84.22 10.3396C84.5091 10.5134 84.8393 10.6069 85.1765 10.6105L88.1046 10.6407L88.285 1.08482Z" fill="#DCE0ED"/>
<path d="M90.6506 5.90857C90.7004 3.26977 89.641 1.10984 88.2844 1.08422C86.9277 1.0586 85.7875 3.177 85.7377 5.81579C85.6879 8.45459 86.7473 10.6145 88.1039 10.6401C89.4606 10.6658 90.6008 8.54736 90.6506 5.90857Z" fill="#F0F0F4"/>
<path d="M87.6392 2.81836C87.6392 2.81836 88.5426 2.98045 88.0488 4.16764C87.7878 4.74419 87.5939 5.34882 87.4709 5.96962C87.4709 5.96962 86.5559 6.42369 86.6215 4.86584C86.6872 3.30799 87.6392 2.81836 87.6392 2.81836Z" fill="#DCE0ED"/>
<path d="M192.753 73.1062C192.916 64.4295 186.632 57.2744 178.715 57.1249C170.799 56.9754 164.249 63.8881 164.085 72.5648C163.921 81.2415 170.206 88.3966 178.122 88.5461C186.038 88.6956 192.589 81.783 192.753 73.1062Z" fill="#636780"/>
<path opacity="0.1" d="M173.326 58.002C180.818 58.6481 186.63 65.5868 186.473 73.9353C186.346 80.6648 182.377 86.3321 176.908 88.4677C169.417 87.8215 163.604 80.8828 163.762 72.5343C163.889 65.8049 167.858 60.1375 173.326 58.002Z" fill="black"/>
<path d="M78.514 36.5988C78.6722 28.2203 73.5916 21.3297 67.166 21.2084C60.7405 21.087 55.4033 27.7808 55.245 36.1594C55.0868 44.5379 60.1674 51.4285 66.593 51.5498C73.0185 51.6712 78.3557 44.9774 78.514 36.5988Z" fill="#636780"/>
<path opacity="0.1" d="M70.4056 21.9043C75.1959 23.8446 78.6093 29.7276 78.4792 36.618C78.3401 43.9814 74.2008 50.0427 68.8384 51.3212C64.0481 49.3809 60.6347 43.4979 60.7648 36.6075C60.9039 29.2442 65.0432 23.1829 70.4056 21.9043Z" fill="black"/>
<path d="M110.644 33.9643L110.532 28.4534C110.532 28.4534 111.657 26.0983 112.741 25.9028C113.825 25.7072 116.311 25.6191 116.311 25.6191C116.311 25.6191 118.105 33.5651 116.764 35.9162C115.424 38.2672 110.644 33.9643 110.644 33.9643Z" fill="#65617D"/>
<path opacity="0.1" d="M110.644 33.9643L110.532 28.4534C110.532 28.4534 111.657 26.0983 112.741 25.9028C113.825 25.7072 116.311 25.6191 116.311 25.6191C116.311 25.6191 118.105 33.5651 116.764 35.9162C115.424 38.2672 110.644 33.9643 110.644 33.9643Z" fill="black"/>
<path d="M130.577 33.7474C130.577 33.7474 131.391 26.1243 127.196 25.9076C126.657 25.8797 126.117 25.8566 125.58 25.7943C122.677 25.4578 114.756 24.696 115.672 26.526C115.672 26.526 117.437 33.2022 116.109 34.8514L130.577 33.7474Z" fill="#65617D"/>
<path d="M70.8418 46.7832L65.2105 46.8388C65.2105 46.8388 64.4345 36.4547 64.1258 35.6388C63.8172 34.8228 63.7287 30.9326 64.7921 30.3856C65.8556 29.8386 69.3913 29.2168 69.3913 29.2168L71.8711 35.1774L71.9726 40.5261L70.8418 46.7832Z" fill="#65617D"/>
<path opacity="0.1" d="M70.8418 46.7832L65.2105 46.8388C65.2105 46.8388 64.4345 36.4547 64.1258 35.6388C63.8172 34.8228 63.7287 30.9326 64.7921 30.3856C65.8556 29.8386 69.3913 29.2168 69.3913 29.2168L71.8711 35.1774L71.9726 40.5261L70.8418 46.7832Z" fill="black"/>
<path d="M84.7716 29.8314L84.8185 28.6775C84.8222 28.5865 84.8072 28.4957 84.7744 28.4107C84.7417 28.3258 84.6918 28.2484 84.628 28.1835C84.5642 28.1186 84.4877 28.0674 84.4033 28.0332C84.3189 27.999 84.2284 27.9824 84.1374 27.9846C81.3455 28.0496 71.186 28.3441 69.3911 29.2168C69.3911 29.2168 71.0616 43.7089 68.8506 47.1101L69.3607 58.7044L94.2575 57.3114L84.7716 29.8314Z" fill="#65617D"/>
<path opacity="0.1" d="M87.0599 11.6132C86.3712 11.5321 85.5515 11.4421 84.6345 11.3535L84.6084 12.7351L87.0379 12.781L87.0599 11.6132Z" fill="black"/>
<path opacity="0.1" d="M63.0228 12.5374L63.0195 12.7123L65.449 12.7582L65.4689 11.707C64.6221 11.8809 63.8004 12.1598 63.0228 12.5374Z" fill="black"/>
<path d="M50.1841 46.7582L53.8548 46.881L61.7018 33.2378L63.0117 30.9602L62.1499 25.1113L61.3768 26.5096L50.1841 46.7582Z" fill="#DCE0ED"/>
<path d="M83.707 30.432L85.1755 32.7282L89.8097 26.7042L91.9307 23.9443L90.7202 22.248L89.7476 23.3831L83.707 30.432Z" fill="#DCE0ED"/>
<path opacity="0.1" d="M89.7475 23.3833C89.7389 23.4998 89.7301 23.6195 89.7197 23.7408L89.8096 26.7043L91.9307 23.9446L90.7201 22.248L89.7475 23.3833Z" fill="black"/>
<path opacity="0.1" d="M61.377 26.5096L61.7019 33.2378L63.0118 30.9602L62.15 25.1113L61.377 26.5096Z" fill="black"/>
<path d="M93.9653 27.7644C93.9653 27.7644 96.0336 14.2577 89.4728 12.1085C89.3886 12.0814 89.3021 12.0619 89.2145 12.0502C87.6993 11.8382 73.5721 9.93843 66.184 11.7395C66.184 11.7395 61.1489 12.4005 61.1519 15.101L62.7424 48.1296L66.3596 48.198L65.5838 26.3642C65.5838 26.3642 64.0356 16.8297 66.9092 16.2358C69.7829 15.642 82.8144 14.808 87.379 16.1904C87.379 16.1904 90.7405 15.4978 90.0446 23.7478L90.177 28.1789L93.9653 27.7644Z" fill="#DCE0ED"/>
<path d="M82.8755 31.5769C82.8521 31.219 82.9213 30.8611 83.0764 30.5377C83.2315 30.2142 83.4673 29.9362 83.761 29.7304C84.7879 28.9802 87.9371 27.3789 87.9371 27.3789L88.9478 27.479L91.8424 35.0677L91.3379 51.058L85.7438 57.7167L82.8755 31.5769Z" fill="#65617D"/>
<path opacity="0.1" d="M82.8755 31.5769C82.8521 31.219 82.9213 30.8611 83.0764 30.5377C83.2315 30.2142 83.4673 29.9362 83.761 29.7304C84.7879 28.9802 87.9371 27.3789 87.9371 27.3789L88.9478 27.479L91.8424 35.0677L91.3379 51.058L85.7438 57.7167L82.8755 31.5769Z" fill="black"/>
<path d="M104.37 48.753L104.572 32.3385C104.572 32.3385 105.179 25.9771 101.374 25.7972C101.374 25.7972 92.3962 25.693 88.4736 26.8855C88.3497 26.9228 88.2357 26.9872 88.1398 27.0741C88.044 27.1609 87.9686 27.2681 87.9193 27.3876C87.87 27.5072 87.8479 27.6363 87.8547 27.7655C87.8615 27.8947 87.897 28.0207 87.9585 28.1345C88.7094 29.5008 89.9512 33.103 90.4099 42.292L90.224 52.1314L104.37 48.753Z" fill="#65617D"/>
<path d="M85.2358 58.8815L101.576 58.8094L101.592 58.8097L109.622 58.7752L108.894 48.0273L104.436 48.1053L90.2047 50.9958L85.7438 57.7165L85.2358 58.8815Z" fill="#65617D"/>
<path opacity="0.1" d="M85.2358 58.8815L101.576 58.8094L101.592 58.8097L109.622 58.7752L108.894 48.0273L104.436 48.1053L90.2047 50.9958L85.7438 57.7165L85.2358 58.8815Z" fill="black"/>
<path d="M85.2358 58.8818L101.576 58.8096L101.98 51.6236L90.2047 50.9961L85.7438 57.7168L85.2358 58.8818Z" fill="#65617D"/>
<path opacity="0.1" d="M101.592 58.8098L109.622 58.7751L108.894 48.0273C108.894 48.0273 106.307 51.9886 101.98 51.6233L101.592 58.8098Z" fill="white"/>
<path d="M43.8183 66.4026C44.0841 69.4861 46.2798 69.0415 46.2798 69.0415L46.6887 69.0119L50.7415 68.7207L50.6698 63.9397C49.2983 63.835 47.9193 63.8916 46.561 64.1083C45.0374 64.3939 43.7 65.0329 43.8183 66.4026Z" fill="#DCE0ED"/>
<path opacity="0.1" d="M43.8183 66.4037C44.0841 69.4871 46.2798 69.0425 46.2798 69.0425L46.6887 69.013C47.1404 68.3315 47.3799 67.5315 47.377 66.7139C47.4286 65.7757 47.1387 64.8504 46.561 64.1094C45.0374 64.3949 43.7 65.034 43.8183 66.4037Z" fill="black"/>
<path d="M100.287 36.1734C100.193 41.1677 103.114 45.273 106.811 45.3429C110.508 45.4127 113.582 41.4206 113.676 36.4262C113.771 31.4319 110.85 27.3266 107.153 27.2568C103.455 27.1869 100.382 31.179 100.287 36.1734ZM102.814 36.8152C102.882 33.1924 105.222 30.2987 108.039 30.3519C110.857 30.4052 113.086 33.3851 113.017 37.0079C112.949 40.6306 110.609 43.5243 107.792 43.4711C104.974 43.4179 102.745 40.4379 102.814 36.8152V36.8152Z" fill="#636780"/>
<path d="M106.605 39.0741L103.416 42.0923L102.334 39.3175L106.919 36.7578L106.605 39.0741Z" fill="#636780"/>
<path d="M102.564 8.5293L99.8319 8.80973L98.7979 9.99225L100.201 16.9209L103.249 28.0987L105.243 35.7709L106.659 40.4337L107.501 46.5851L108.38 50.8196L111.201 53.7488L117.177 46.9595L118.178 44.6776L120.567 40.0256L114.678 37.1341L108.172 36.4361L105.254 28.5202L102.935 19.3692L102.564 8.5293Z" fill="#FF3838"/>
<path d="M157.092 42.4577L160.091 72.4348L115.262 69.6977L120.723 55.1108L129.467 49.659L109.701 49.6099L109.748 41.4016L117.771 39.8249L133.884 38.8331L145.987 38.5215L157.469 42.5191" fill="#65617D"/>
<path opacity="0.1" d="M157.092 42.4577L160.091 72.4348L115.262 69.6977L120.723 55.1108L129.467 49.659L109.701 49.6099L109.748 41.4016L117.771 39.8249L133.884 38.8331L145.987 38.5215L157.469 42.5191" fill="black"/>
<path d="M95.2359 71.1073C95.0955 78.5398 97.437 85.3524 104.303 84.741C112.949 84.719 113.739 78.8919 113.879 71.4594C114.019 64.027 109.95 58.4169 104.802 58.3196C99.6541 58.2224 95.3763 63.6749 95.2359 71.1073Z" fill="#636780"/>
<path opacity="0.1" d="M95.1817 71.1192C95.2904 65.365 97.8794 60.7983 101.432 59.0742C105.934 60.0188 109.31 65.282 109.182 72.063C109.067 78.1539 108.515 83.1658 103.561 84.789C97.2262 84.897 95.0461 78.2976 95.1817 71.1192Z" fill="black"/>
<path d="M86.6511 59.277L89.2293 62.3452L84.5012 61.4412L81.017 58.1159L77.9742 51.7315L73.5694 48.9161L62.6168 50.1952L52.4993 50.3875L48.8296 47.0021L53.004 46.5144L57.2222 46.4985L67.8161 46.4588L80.424 46.3613L82.8813 53.3102L84.7563 58.0906L86.6511 59.277Z" fill="#FF3838"/>
<path d="M50.1606 70.8973C50.3699 71.2253 57.4225 72.4392 57.4225 72.4392L76.8979 76.3716L110.471 77.4917L114.474 74.2183L116.537 74.6251L116.621 74.6412L144.176 80.0726L144.628 80.0163L152.184 79.0848L191.651 74.2177L191.318 68.4952L191.121 65.1182L190.714 58.1063L190.37 56.2624L186.871 55.8755L185.236 55.694L159.734 52.8679L156.4 52.4987L154.531 52.2916L136.329 49.4641L109.701 49.6092L109.747 41.4004L99.8315 8.80859C97.5034 9.14213 97.5273 10.7093 97.5273 10.7093L105.913 41.3815L105.667 60.118C86.9929 61.648 86.4688 57.5762 83.4935 58.8891L80.1454 47.4308L48.8297 47.0014C47.5589 48.4891 50.1606 70.8973 50.1606 70.8973Z" fill="#65617D"/>
<path d="M128.171 55.3594L117.834 76.4974L114.466 77.5132L113.722 74.0433L117.671 62.29L121.633 55.5059L128.171 55.3594Z" fill="#65617D"/>
<path opacity="0.15" d="M128.171 55.3594L117.834 76.4974L114.466 77.5132L113.722 74.0433L117.671 62.29L121.633 55.5059L128.171 55.3594Z" fill="black"/>
<path d="M152.183 79.3051C152.396 68.0343 144.514 58.7455 134.578 58.5578C124.641 58.3702 116.414 67.3549 116.201 78.6256C115.988 89.8964 123.871 99.1853 133.807 99.3729C143.743 99.5606 151.97 90.5759 152.183 79.3051Z" fill="#636780"/>
<path opacity="0.1" d="M128.137 59.7109C137.54 60.5441 144.83 69.5523 144.625 80.3968C144.46 89.1381 139.473 96.503 132.608 99.2815C123.206 98.4483 115.916 89.4402 116.12 78.5957C116.286 69.8543 121.272 62.4895 128.137 59.7109Z" fill="black"/>
<path d="M183.091 44.1914L183.903 48.4064L186.386 61.3195L198.124 60.407C198.124 60.407 198.866 58.2613 197.046 57.4168C197.046 57.4168 196.582 50.0959 194.46 47.7535C194.232 47.4867 193.945 47.278 193.62 47.1446L183.091 44.1914Z" fill="#65617D"/>
<path opacity="0.1" d="M183.903 48.4068L186.386 61.3199L198.124 60.4074C198.124 60.4074 198.866 58.2617 197.046 57.4172C197.046 57.4172 196.582 50.0963 194.46 47.7539L183.903 48.4068Z" fill="white"/>
<path d="M156.669 44.826C155.11 47.3338 158.339 70.7812 158.339 70.7812L187.205 66.5726L186.566 46.0922C186.041 42.4092 183.89 41.9376 183.89 41.9376C173.837 36.6165 150.534 35.0957 150.534 35.0957C129.248 35.5038 109.748 41.4009 109.748 41.4009C134.004 38.1325 156.669 44.826 156.669 44.826Z" fill="#65617D"/>
<path opacity="0.1" d="M158.339 70.7817L187.205 66.5731L186.566 46.0927C186.041 42.4097 183.89 41.9381 183.89 41.9381C183.89 41.9381 162.926 39.5428 156.669 44.8265C155.11 47.3343 158.339 70.7817 158.339 70.7817Z" fill="black"/>
<path d="M161.407 69.4881L185.544 65.8881L185.017 48.4147C184.579 45.2726 182.781 44.8709 182.781 44.8709C182.781 44.8709 165.252 42.834 160.019 47.344C158.715 49.4841 161.407 69.4881 161.407 69.4881Z" fill="#65617D"/>
<path opacity="0.1" d="M166.951 55.2274C167.013 51.9177 165.589 49.2069 163.771 49.1725C161.952 49.1381 160.427 51.7933 160.364 55.103C160.302 58.4127 161.725 61.1236 163.544 61.1579C165.363 61.1923 166.888 58.5371 166.951 55.2274Z" fill="black"/>
<path d="M166.954 55.0653C167.016 51.7556 165.592 49.0447 163.774 49.0104C161.955 48.976 160.43 51.6312 160.367 54.9409C160.305 58.2506 161.728 60.9614 163.547 60.9958C165.366 61.0301 166.891 58.375 166.954 55.0653Z" fill="#DCE0ED"/>
<path d="M163.312 50.5684C163.312 50.5684 164.658 50.8098 163.922 52.5782C163.534 53.437 163.245 54.3376 163.062 55.2623C163.062 55.2623 161.699 55.9387 161.797 53.6182C161.894 51.2977 163.312 50.5684 163.312 50.5684Z" fill="#F0F0F4"/>
<path opacity="0.1" d="M184.434 53.1806C184.492 50.0879 183.162 47.5548 181.462 47.5227C179.763 47.4906 178.338 49.9717 178.279 53.0643C178.221 56.157 179.551 58.6901 181.251 58.7222C182.95 58.7543 184.375 56.2732 184.434 53.1806Z" fill="black"/>
<path d="M184.437 53.0185C184.495 49.9258 183.165 47.3927 181.465 47.3606C179.766 47.3285 178.34 49.8096 178.282 52.9022C178.224 55.9949 179.554 58.528 181.254 58.5601C182.953 58.5922 184.378 56.1111 184.437 53.0185Z" fill="#DCE0ED"/>
<path d="M181.011 48.5254C181.011 48.5254 182.357 48.7668 181.621 50.5352C181.232 51.394 180.944 52.2946 180.76 53.2193C180.76 53.2193 179.397 53.8957 179.495 51.5752C179.593 49.2547 181.011 48.5254 181.011 48.5254Z" fill="#F0F0F4"/>
<path opacity="0.1" d="M167.533 50.1612C167.707 52.3793 168.477 68.8116 168.477 68.8116L170.315 68.5401L171.337 68.3909L172.698 68.1898L172.862 68.1653L178.226 67.3755L177.498 49.9459C177.475 49.3861 177.237 48.8568 176.834 48.4676C176.43 48.0785 175.893 47.8593 175.333 47.8555C175.279 47.8561 175.224 47.8567 175.169 47.8605C174.799 47.8859 174.4 47.9172 173.984 47.9548C173.809 47.9709 173.632 47.987 173.452 48.0063C172.937 48.0581 172.406 48.1226 171.885 48.1986C171.618 48.239 171.357 48.281 171.098 48.3264C170.661 48.4056 170.238 48.4932 169.847 48.5944C169.582 48.6623 169.329 48.7369 169.098 48.8184C168.126 49.15 167.487 49.5884 167.533 50.1612Z" fill="black"/>
<path d="M175.333 47.8555L176.009 67.4422L176.605 67.4L175.935 47.9446C175.739 47.887 175.537 47.857 175.333 47.8555Z" fill="#65617D"/>
<path d="M173.452 48.0066L174.059 67.7832L174.977 67.8005L173.985 47.9551C173.809 47.9712 173.632 47.9873 173.452 48.0066Z" fill="#65617D"/>
<path d="M171.098 48.3269L172.269 68.1823L172.863 68.1935L172.862 68.1659L171.885 48.1992C171.618 48.2396 171.357 48.2816 171.098 48.3269Z" fill="#65617D"/>
<path d="M169.098 48.8178L170.315 68.5395L170.317 68.5768L171.344 68.4876L171.337 68.3903L169.847 48.5938C169.582 48.6616 169.329 48.7363 169.098 48.8178Z" fill="#65617D"/>
<path opacity="0.1" d="M190.769 64.4804C190.769 64.4804 192.946 54.2736 188.421 53.6615C183.896 53.0495 168.975 53.8613 169.341 58.0808C169.706 62.3003 170.072 68.7071 170.072 68.7071L173.162 68.0769C173.162 68.0769 171.036 58.3964 174.646 58.1C178.257 57.8037 187.103 56.9581 187.103 56.9581C187.103 56.9581 189.5 56.5983 187.963 65.035L190.769 64.4804Z" fill="black"/>
<path d="M190.75 65.4525C190.75 65.4525 192.94 54.5978 188.415 53.9857C183.89 53.3737 168.968 54.1855 169.334 58.405C169.7 62.6246 170.065 69.0313 170.065 69.0313L173.156 68.4011C173.156 68.4011 171.03 58.7206 174.64 58.4242C178.251 58.1279 187.097 57.2823 187.097 57.2823C187.097 57.2823 189.481 57.5704 187.945 66.0071L190.75 65.4525Z" fill="#DCE0ED"/>
<path d="M110.471 77.4927L114.466 77.5131C117.624 64.7195 122.58 56.8205 122.58 56.8205C124.216 55.9862 141.922 56.4292 141.922 56.4292C143.752 56.7878 144.128 62.6277 144.128 62.6277C144.128 62.6277 142.536 63.9473 144.031 64.8407C144.699 65.2389 146.92 65.3538 149.483 65.271C152.666 65.1658 156.377 64.7531 158.302 64.1916C161.778 63.1765 159.063 61.1275 159.063 61.1275C159.063 61.1275 158.589 60.4705 158.332 56.9011C158.149 54.8167 157.515 52.7972 156.472 50.9829C156.328 50.7323 156.237 50.5961 156.237 50.5961C156.058 50.4199 155.846 50.2814 155.612 50.189C151.071 48.1913 128.603 49.5881 128.603 49.5881L120.239 52.0776C120.008 52.1656 119.642 52.7452 119.187 53.6731C116.453 59.2583 110.471 77.4927 110.471 77.4927Z" fill="#65617D"/>
<path opacity="0.1" d="M110.471 77.4927L114.466 77.5131C117.624 64.7195 122.58 56.8205 122.58 56.8205C124.216 55.9862 141.922 56.4292 141.922 56.4292C143.752 56.7878 144.128 62.6277 144.128 62.6277C144.128 62.6277 142.536 63.9473 144.031 64.8407C144.699 65.2389 146.92 65.3538 149.483 65.271C152.666 65.1658 156.377 64.7531 158.302 64.1916C161.778 63.1765 159.063 61.1275 159.063 61.1275C159.063 61.1275 158.589 60.4705 158.332 56.9011C158.149 54.8167 157.515 52.7972 156.472 50.9829C156.328 50.7323 156.237 50.5961 156.237 50.5961C156.058 50.4199 155.846 50.2814 155.612 50.189C151.071 48.1913 128.603 49.5881 128.603 49.5881L120.239 52.0776C120.008 52.1656 119.642 52.7452 119.187 53.6731C116.453 59.2583 110.471 77.4927 110.471 77.4927Z" fill="black"/>
<path d="M119.187 53.6731C126.919 50.8363 148.04 52.8182 148.04 52.8182C150.323 50.9397 154.551 50.8932 156.472 50.9829C156.328 50.7323 156.237 50.5961 156.237 50.5961C156.058 50.4199 155.846 50.2814 155.612 50.189C151.071 48.1913 128.603 49.5881 128.603 49.5881L120.24 52.0776C120.008 52.1656 119.642 52.7452 119.187 53.6731Z" fill="#65617D"/>
<path d="M146.782 53.605C147.237 55.2873 149.107 62.0206 149.107 62.0206C149.295 63.0961 149.42 64.1815 149.483 65.2714C152.666 65.1663 156.377 64.7536 158.302 64.192C161.778 63.177 159.063 61.128 159.063 61.128C159.063 61.128 158.589 60.4709 158.332 56.9016C158.137 54.6649 157.419 52.5053 156.236 50.5966C156.058 50.4203 155.846 50.2819 155.612 50.1895C152.598 50.8406 146.439 52.3315 146.782 53.605Z" fill="#65617D"/>
<path opacity="0.1" d="M146.782 53.605C147.237 55.2873 149.107 62.0206 149.107 62.0206C149.295 63.0961 149.42 64.1815 149.483 65.2714C152.666 65.1663 156.377 64.7536 158.302 64.192C161.778 63.177 159.063 61.128 159.063 61.128C159.063 61.128 158.589 60.4709 158.332 56.9016C158.137 54.6649 157.419 52.5053 156.236 50.5966C156.058 50.4203 155.846 50.2819 155.612 50.1895C152.598 50.8406 146.439 52.3315 146.782 53.605Z" fill="white"/>
<path d="M99.832 8.8092L109.748 41.401L151.096 35.4175L145.633 15.8311C145.633 15.8311 144.786 11.3595 142.646 10.995C142.646 10.995 109.592 4.6189 99.832 8.8092ZM104.434 13.9188C103.1 9.519 122.744 11.7128 122.744 11.7128C125.389 11.5083 128.576 11.7306 131.54 12.0895C132.624 12.2218 133.678 12.3729 134.665 12.5277C136.867 12.8739 138.736 13.2429 139.854 13.4763C140.566 13.6242 140.974 13.7178 140.974 13.7178C144.879 15.0067 146.8 31.2453 146.8 31.2453C147.092 32.952 145.074 32.5494 145.074 32.5494L144.943 32.5518L143.103 32.5883L137.618 32.7002L110.874 33.2402C109.298 33.0484 109.09 31.1812 109.09 31.1812C108.265 29.8289 104.434 13.9188 104.434 13.9188H104.434Z" fill="#65617D"/>
<path d="M144.943 32.552L145.074 32.5496C145.074 32.5496 147.092 32.9523 146.8 31.2455C146.8 31.2455 144.879 15.007 140.974 13.7181C140.974 13.7181 140.566 13.6245 139.854 13.4766C141.228 16.2861 145.624 25.9009 144.943 32.552Z" fill="#65617D"/>
<path opacity="0.1" d="M144.943 32.552L145.074 32.5496C145.074 32.5496 147.092 32.9523 146.8 31.2455C146.8 31.2455 144.879 15.007 140.974 13.7181C140.974 13.7181 140.566 13.6245 139.854 13.4766C141.228 16.2861 145.624 25.9009 144.943 32.552Z" fill="black"/>
<path opacity="0.1" d="M140.56 72.4306C140.786 72.8716 141.134 73.239 141.561 73.4895C141.989 73.7401 142.48 73.8635 142.975 73.8453L143.8 73.8253L151.59 73.637L154.398 73.5685L156.993 73.402L191.318 68.4962L191.121 65.1191L187.175 65.6084L185.543 65.8109L161.317 68.811L158.129 69.206L156.583 69.3972L150.05 69.2268L142.978 69.0414C142.621 69.0311 142.265 69.0927 141.931 69.2225C141.32 69.4528 140.82 69.9099 140.536 70.4989C140.388 70.8 140.313 71.1319 140.317 71.4675C140.321 71.8032 140.404 72.1332 140.56 72.4306Z" fill="black"/>
<path d="M140.554 72.755C140.78 73.196 141.128 73.5634 141.556 73.8139C141.983 74.0645 142.474 74.1879 142.969 74.1697L154.392 73.8929L156.988 73.7264L193.592 68.4942L196.469 68.0835L198.037 67.8588C201.126 67.269 200.266 64.1744 200.266 64.1744C200.077 62.766 194.81 61.3704 193.083 61.3928C191.921 61.4065 191.725 63.1932 191.722 64.3646C191.721 64.9381 191.765 65.3634 191.765 65.3634L190.053 65.5758L156.577 69.7216L142.972 69.3658C142.468 69.3472 141.969 69.4749 141.536 69.7335C141.103 69.9921 140.754 70.3706 140.531 70.8232C140.382 71.1244 140.307 71.4563 140.311 71.7919C140.315 72.1276 140.398 72.4575 140.554 72.755Z" fill="#DCE0ED"/>
<path opacity="0.1" d="M195.529 63.3828C195.529 63.3828 194.037 65.1369 191.765 65.364C191.765 65.364 192.72 63.3838 195.529 63.3828Z" fill="black"/>
<path opacity="0.1" d="M195.812 68.4102C195.812 68.4102 200.619 68.3929 200.57 70.9844C200.521 73.5758 197.49 73.9506 197.49 73.9506L154.413 81.4002L142.207 81.3857C142.207 81.3857 138.007 77.9039 142.462 76.4758L154.765 77.0322L195.83 70.3008C195.83 70.3008 194.778 68.8227 195.812 68.4102Z" fill="black"/>
<path d="M142.201 81.7094L154.406 81.7244L192.709 75.1001L195.511 74.6151L197.483 74.2748C197.483 74.2748 200.515 73.8995 200.564 71.3081C200.599 69.4487 198.131 68.9322 196.736 68.7892C196.188 68.7335 195.805 68.7344 195.805 68.7344C194.772 69.1458 195.825 70.6239 195.825 70.6239L194.329 70.8695L154.759 77.3565L142.456 76.8001C138.001 78.2276 142.201 81.7094 142.201 81.7094Z" fill="#DCE0ED"/>
<path d="M192.234 66.2367L189.718 65.055L188.424 64.9766L188.326 75.8842L192.336 75.1499L194.03 74.1017L194.926 69.582C194.926 69.582 194.637 67.6863 194.478 67.5213C194.32 67.3562 192.234 66.2367 192.234 66.2367Z" fill="#DCE0ED"/>
<path opacity="0.1" d="M192.234 66.2367L189.718 65.055L188.424 64.9766L188.326 75.8842L192.336 75.1499L194.03 74.1017L194.926 69.582C194.926 69.582 194.637 67.6863 194.478 67.5213C194.32 67.3562 192.234 66.2367 192.234 66.2367Z" fill="black"/>
<path opacity="0.1" d="M192.709 75.1001C192.677 75.1368 192.661 75.1559 192.661 75.1559L195.478 74.6679C195.489 74.6503 195.501 74.6327 195.511 74.6151C197.037 72.2573 197.199 70.3226 196.736 68.7892C196.188 68.7335 195.805 68.7344 195.805 68.7344C194.772 69.1458 195.825 70.6239 195.825 70.6239L194.329 70.8695C194.39 73.0061 192.989 74.7684 192.709 75.1001Z" fill="black"/>
<path opacity="0.1" d="M188.747 64.9808C189.218 65.1728 189.654 65.3706 190.053 65.5742C191.852 66.4831 192.956 67.4858 193.592 68.4926L196.469 68.082C195.274 65.4735 192.326 64.2383 192.326 64.2383L191.722 64.363L188.747 64.9808Z" fill="black"/>
<path d="M192.002 64.2344C192.002 64.2344 199.826 67.5146 195.154 74.6634L192.336 75.1502C192.336 75.1502 198.017 68.8846 188.424 64.9769L192.002 64.2344Z" fill="#DCE0ED"/>
<path d="M173.148 67.3877L170.235 67.2246L170.499 78.9493L175.213 78.1743L177.229 77.2401L178.19 74.9361L178.882 72.6267L177.356 70.4917L175.597 69.2702L173.148 67.3877Z" fill="#DCE0ED"/>
<path opacity="0.1" d="M173.148 67.3877L170.235 67.2246L170.499 78.9493L175.213 78.1743L177.229 77.2401L178.19 74.9361L178.882 72.6267L177.356 70.4917L175.597 69.2702L173.148 67.3877Z" fill="black"/>
<path d="M174.761 73.4666C174.786 72.1546 174.178 71.0792 173.403 71.0646C172.627 71.05 171.979 72.1016 171.954 73.4136C171.929 74.7255 172.538 75.8009 173.313 75.8156C174.088 75.8302 174.737 74.7785 174.761 73.4666Z" fill="#DCE0ED"/>
<path d="M186.684 76.919C186.782 76.9614 186.87 77.0238 186.942 77.1022C187.014 77.1806 187.069 77.2733 187.103 77.3743C187.137 77.4753 187.15 77.5823 187.14 77.6884C187.13 77.7946 187.098 77.8975 187.046 77.9904C186.717 78.5797 186.321 79.3424 186.353 79.5466C186.407 79.892 185.643 79.594 185.543 79.5111C185.444 79.4282 184.045 79.4828 183.982 78.5297C183.974 78.2423 184.042 77.9578 184.178 77.7045C184.314 77.4513 184.514 77.2381 184.759 77.0862L184.474 74.9948L186.401 74.8691L186.344 76.7718L186.684 76.919Z" fill="#636780"/>
<path opacity="0.1" d="M186.684 76.919C186.782 76.9614 186.87 77.0238 186.942 77.1022C187.014 77.1806 187.069 77.2733 187.103 77.3743C187.137 77.4753 187.15 77.5823 187.14 77.6884C187.13 77.7946 187.098 77.8975 187.046 77.9904C186.717 78.5797 186.321 79.3424 186.353 79.5466C186.407 79.892 185.643 79.594 185.543 79.5111C185.444 79.4282 184.045 79.4828 183.982 78.5297C183.974 78.2423 184.042 77.9578 184.178 77.7045C184.314 77.4513 184.514 77.2381 184.759 77.0862L184.474 74.9948L186.401 74.8691L186.344 76.7718L186.684 76.919Z" fill="black"/>
<path opacity="0.1" d="M186.16 76.8691C186.16 76.8691 185.47 79.0839 185.752 79.1703C186.034 79.2566 186.16 76.8691 186.16 76.8691Z" fill="black"/>
<path opacity="0.1" d="M185.442 76.3281C185.442 76.3281 184.752 78.5429 185.034 78.6292C185.315 78.7156 185.442 76.3281 185.442 76.3281Z" fill="black"/>
<path d="M177.807 69.4738L178.761 76.1899C178.761 76.1899 180.1 76.0321 180.84 75.8873C181.002 75.8682 181.16 75.8225 181.308 75.7519C181.346 75.7154 181.425 75.7201 181.53 75.7432L181.531 75.7432C181.89 75.8229 182.525 76.133 182.655 75.8843C182.664 75.865 182.677 75.8472 182.691 75.8315L182.693 75.8299C182.822 75.6947 183.066 75.7997 183.304 75.8399C183.431 75.8741 183.566 75.8587 183.682 75.7968C183.884 75.6677 184.283 75.8891 184.612 75.9666C184.82 76.0159 185 76.0096 185.086 75.8233C185.119 75.763 185.166 75.7112 185.223 75.6723C185.28 75.6335 185.345 75.6085 185.413 75.5994L185.415 75.5994C185.727 75.5276 186.162 75.5892 186.414 75.5405C186.513 75.523 186.582 75.487 186.606 75.4194C186.657 75.2745 186.937 75.2102 187.236 75.1591C187.598 75.0963 187.988 75.0534 188.02 74.9066C188.029 74.8582 188.065 74.8378 188.119 74.8371C188.319 74.871 188.516 74.9235 188.707 74.9941L188.709 74.9941C188.87 75.0377 189.004 75.0418 189.045 74.9259C189.09 74.7988 189.276 74.8169 189.487 74.8727C189.658 74.9181 189.846 74.988 189.991 75.0248C190.122 75.0564 190.216 75.0631 190.233 75.0018C190.291 74.7874 190.983 75.2866 191.153 74.8572C191.323 74.4278 193.591 71.6093 190.8 67.8301C190.8 67.8301 190.024 67.8689 189.431 67.9646C189.234 67.9876 189.041 68.038 188.858 68.1142C188.855 68.1141 188.853 68.1157 188.85 68.1173C188.51 68.2056 188.158 68.2394 187.808 68.2175C187.607 68.2161 187.408 68.2594 187.225 68.3442C187.154 68.3819 187.096 68.4416 187.06 68.5145C186.966 68.7185 186.757 68.7567 186.531 68.7394C186.225 68.7158 185.887 68.5928 185.761 68.652C185.758 68.6538 185.754 68.6554 185.75 68.6566C185.521 68.7495 184.676 68.6396 184.529 68.7778C184.525 68.7816 184.521 68.7859 184.518 68.7905C184.454 68.8801 184.124 68.7782 183.786 68.7265L183.785 68.7264C183.673 68.6933 183.555 68.6844 183.439 68.7003C183.323 68.7163 183.211 68.7568 183.112 68.8191C182.961 68.9342 182.772 68.9864 182.583 68.9646C182.354 68.9434 182.124 68.9483 181.896 68.9792C181.843 68.9925 181.795 69.0215 181.758 69.0624C181.617 69.2299 181.289 69.201 180.995 69.21C180.845 69.2009 180.695 69.2358 180.564 69.3105C180.517 69.3424 180.464 69.3635 180.407 69.3723C179.972 69.4039 179.534 69.3739 179.106 69.2829L177.807 69.4738Z" fill="#636780"/>
<path opacity="0.1" d="M189.487 74.8729C189.658 74.9183 189.846 74.9883 189.991 75.025C192.248 71.6652 190.451 69.047 189.431 67.9648C189.234 67.9878 189.041 68.0382 188.858 68.1144C191.011 70.6972 189.929 73.8524 189.487 74.8729Z" fill="black"/>
<path opacity="0.1" d="M188.118 74.8365C188.319 74.8703 188.516 74.9228 188.707 74.9934L188.708 74.9934C190.648 71.7102 188.764 69.1925 187.808 68.2168C187.606 68.2155 187.407 68.2588 187.225 68.3436C189.282 70.6799 188.605 73.5252 188.118 74.8365Z" fill="black"/>
<path opacity="0.1" d="M186.414 75.5412C186.513 75.5236 186.582 75.4877 186.606 75.4201C186.657 75.2752 186.937 75.2109 187.236 75.1598C188.938 72.1848 187.51 69.849 186.531 68.7401C186.225 68.7165 185.887 68.5935 185.761 68.6527C185.758 68.6545 185.754 68.6561 185.75 68.6573C188.023 71.3056 186.84 74.5804 186.414 75.5412Z" fill="black"/>
<path opacity="0.1" d="M184.612 75.9668C184.82 76.0161 185 76.0097 185.086 75.8234C185.12 75.7631 185.166 75.7114 185.223 75.6725C185.28 75.6336 185.345 75.6086 185.413 75.5995L185.415 75.5995C187.399 72.288 185.488 69.7487 184.529 68.7779C184.525 68.7817 184.521 68.786 184.518 68.7906C184.454 68.8801 184.124 68.7783 183.787 68.7266C186.462 71.5315 184.99 75.1622 184.612 75.9668Z" fill="black"/>
<path opacity="0.1" d="M182.693 75.8294C182.822 75.6942 183.066 75.7992 183.304 75.8394C185.367 72.5536 183.576 70.0084 182.583 68.9641C182.354 68.9429 182.123 68.9478 181.896 68.9786C184.184 71.5365 183.159 74.7203 182.693 75.8294Z" fill="black"/>
<path opacity="0.1" d="M180.84 75.8877C181.002 75.8686 181.16 75.8229 181.307 75.7523C181.345 75.7158 181.425 75.7205 181.53 75.7436L181.531 75.7436C183.362 72.7419 181.991 70.3699 180.995 69.2104C180.845 69.2013 180.695 69.2362 180.564 69.3108C180.517 69.3428 180.463 69.3639 180.407 69.3727C182.299 71.9117 181.267 74.9058 180.84 75.8877Z" fill="black"/>
<path d="M137.211 79.9943C137.346 72.8383 133.515 66.9627 128.655 66.8709C123.795 66.7791 119.746 72.5059 119.61 79.6619C119.475 86.818 123.306 92.6936 128.166 92.7853C133.026 92.8771 137.075 87.1504 137.211 79.9943Z" fill="#636780"/>
<path opacity="0.1" d="M135.102 80.1452C135.211 74.3458 132.436 69.5904 128.903 69.5237C125.369 69.4569 122.416 74.1042 122.307 79.9036C122.197 85.703 124.973 90.4584 128.506 90.5251C132.039 90.5919 134.992 85.9446 135.102 80.1452Z" fill="black"/>
<path d="M135.108 79.821C135.217 74.0216 132.442 69.2662 128.909 69.1995C125.375 69.1327 122.422 73.78 122.313 79.5793C122.203 85.3787 124.979 90.1342 128.512 90.2009C132.045 90.2676 134.998 85.6204 135.108 79.821Z" fill="#F0F0F4"/>
<path d="M128.438 72.6469C128.452 71.9313 128.125 71.3448 127.707 71.3369C127.29 71.329 126.94 71.9027 126.927 72.6183C126.913 73.3339 127.241 73.9205 127.658 73.9283C128.076 73.9362 128.425 73.3625 128.438 72.6469Z" fill="#636780"/>
<path d="M125.201 83.9281C125.214 83.2125 124.887 82.626 124.469 82.6181C124.052 82.6103 123.703 83.184 123.689 83.8996C123.676 84.6152 124.003 85.2017 124.42 85.2096C124.838 85.2175 125.187 84.6437 125.201 83.9281Z" fill="#636780"/>
<path d="M133.455 78.682C133.469 77.9664 133.141 77.3799 132.724 77.3721C132.306 77.3642 131.957 77.9379 131.943 78.6535C131.93 79.3691 132.257 79.9556 132.675 79.9635C133.092 79.9714 133.442 79.3977 133.455 78.682Z" fill="#636780"/>
<path d="M131.099 86.1996C131.112 85.484 130.785 84.8975 130.367 84.8896C129.95 84.8818 129.6 85.4555 129.587 86.1711C129.573 86.8867 129.901 87.4732 130.318 87.4811C130.736 87.489 131.085 86.9152 131.099 86.1996Z" fill="#636780"/>
<path d="M64.4552 54.6406C64.4552 54.6406 57.8204 71.3657 58.1245 72.4246C58.1245 72.4246 55.4215 73.9938 54.7812 73.5766C54.141 73.1595 54.8486 65.7198 54.8486 65.7198L56.1873 59.1831L57.6374 55.322L64.4552 54.6406Z" fill="#65617D"/>
<path opacity="0.15" d="M64.4552 54.6406C64.4552 54.6406 57.8204 71.3657 58.1245 72.4246C58.1245 72.4246 55.4215 73.9938 54.7812 73.5766C54.141 73.1595 54.8486 65.7198 54.8486 65.7198L56.1873 59.1831L57.6374 55.322L64.4552 54.6406Z" fill="black"/>
<path d="M124.253 76.8891C124.267 76.1735 123.94 75.587 123.522 75.5791C123.105 75.5712 122.755 76.1449 122.742 76.8605C122.728 77.5761 123.056 78.1626 123.473 78.1705C123.891 78.1784 124.24 77.6047 124.253 76.8891Z" fill="#636780"/>
<path d="M129.755 80.1254C129.787 78.4259 128.822 77.0294 127.6 77.0063C126.377 76.9832 125.36 78.3422 125.328 80.0418C125.296 81.7414 126.261 83.1379 127.484 83.1609C128.706 83.184 129.723 81.825 129.755 80.1254Z" fill="#636780"/>
<path d="M56.9848 77.0231C56.8007 86.7733 59.8723 95.7103 68.8797 94.9083C80.2219 94.8795 81.2574 87.2352 81.4415 77.4851C81.6257 67.7349 76.2879 60.3753 69.5344 60.2478C62.7808 60.1202 57.1689 67.273 56.9848 77.0231Z" fill="#636780"/>
<path opacity="0.1" d="M56.9135 77.0374C57.0561 69.4887 60.4524 63.4981 65.1128 61.2363C71.0191 62.4755 75.4477 69.3799 75.2797 78.2754C75.1288 86.2658 74.4046 92.8406 67.9062 94.97C59.5955 95.1116 56.7357 86.4543 56.9135 77.0374Z" fill="black"/>
<path opacity="0.1" d="M52.2847 72.8019C52.2847 72.8019 53.8783 74.2092 54.7875 73.2543C54.7875 73.2543 57.3044 55.8033 60.0593 55.7744L69.5358 55.8723C69.5358 55.8723 70.6604 56.3796 71.1065 58.4944L76.9043 76.0488L110.477 77.169L113.142 71.845L85.3638 71.4014L85.3608 71.3884C85.2203 70.8478 80.893 54.1879 77.8125 52.0672C77.8109 52.0655 77.8093 52.0655 77.8077 52.0638C77.7035 51.9904 77.5895 51.9321 77.4691 51.8906C77.4691 51.8906 65.9176 50.1332 62.0916 51.1141C62.0916 51.1141 58.1066 51.9299 57.1119 53.1263C57.1089 53.1293 57.1062 53.1325 57.1036 53.1359C56.9715 53.2695 55.4365 54.9336 54.8794 59.8081L52.2847 72.8019Z" fill="black"/>
<path d="M52.2783 73.1261C52.2783 73.1261 53.872 74.5334 54.7811 73.5785C54.7811 73.5785 57.298 56.1276 60.053 56.0986L69.5294 56.1965C69.5294 56.1965 70.654 56.7039 71.1001 58.8186L76.8979 76.3731L110.471 77.4932L113.136 72.1692L85.3574 71.7256L85.3544 71.7126C85.2139 71.172 80.8867 54.5121 77.8061 52.3914C77.8046 52.3898 77.8029 52.3897 77.8013 52.3881C77.6972 52.3147 77.5832 52.2563 77.4627 52.2148C77.4627 52.2148 65.9113 50.4574 62.0852 51.4383C62.0852 51.4383 58.1003 52.2542 57.1055 53.4506C57.1026 53.4536 57.0998 53.4568 57.0973 53.4601C56.9651 53.5937 55.4301 55.2579 54.873 60.1323L52.2783 73.1261Z" fill="#65617D"/>
<path opacity="0.1" d="M52.2783 73.1261C52.2783 73.1261 53.872 74.5334 54.7811 73.5785C54.7811 73.5785 57.298 56.1276 60.053 56.0986L69.5294 56.1965C69.5294 56.1965 70.654 56.7039 71.1001 58.8186L76.8979 76.3731L110.471 77.4932L113.136 72.1692L85.3574 71.7256L85.3544 71.7126C85.2139 71.172 80.8867 54.5121 77.8061 52.3914C77.8046 52.3898 77.8029 52.3897 77.8013 52.3881C77.6972 52.3147 77.5832 52.2563 77.4627 52.2148C77.4627 52.2148 65.9113 50.4574 62.0852 51.4383C62.0852 51.4383 58.1003 52.2542 57.1055 53.4506C57.1026 53.4536 57.0998 53.4568 57.0973 53.4601C56.9651 53.5937 55.4301 55.2579 54.873 60.1323L52.2783 73.1261Z" fill="black"/>
<path d="M73.2088 54.4014C73.9896 55.9554 80.5962 75.0368 80.5962 75.0368L85.3574 71.7243L85.3544 71.7112C85.2139 71.1707 80.8821 54.4929 77.8013 52.3867C75.767 52.695 72.6779 53.3463 73.2088 54.4014Z" fill="#65617D"/>
<path d="M82.443 45.9086L86.0136 58.4518L105.865 58.2596L105.668 60.1191C105.668 60.1191 90.0764 62.093 83.494 58.8902L80.1459 47.4314L48.8296 47.002L54.8218 45.7109L82.443 45.9086Z" fill="#65617D"/>
<path opacity="0.1" d="M82.443 45.9086L86.0136 58.4518L105.865 58.2596L105.668 60.1191C105.668 60.1191 90.0764 62.093 83.494 58.8902L80.1459 47.4314L48.8296 47.002L54.8218 45.7109L82.443 45.9086Z" fill="white"/>
<path opacity="0.1" d="M175.094 67.3181C175.094 67.3181 185.628 72.8638 177.651 77.7358L175.537 78.182C175.537 78.182 183.362 72.767 170.559 67.2324L175.094 67.3181Z" fill="black"/>
<path d="M174.77 67.3103C174.77 67.3103 185.305 72.856 177.328 77.728L175.213 78.1741C175.213 78.1741 183.038 72.7592 170.235 67.2246L174.77 67.3103Z" fill="#DCE0ED"/>
<path d="M70.4018 78.6532C70.5074 73.0626 67.9462 68.4804 64.6813 68.4188C61.4163 68.3571 58.684 72.8392 58.5784 78.4299C58.4728 84.0206 61.034 88.6027 64.2989 88.6644C67.5639 88.726 70.2962 84.2439 70.4018 78.6532Z" fill="#636780"/>
<path opacity="0.1" d="M68.9829 78.8434C69.0685 74.3126 67.2137 70.6034 64.8401 70.5585C62.4665 70.5137 60.4729 74.1503 60.3874 78.6811C60.3018 83.2118 62.1566 86.9211 64.5302 86.9659C66.9038 87.0108 68.8974 83.3742 68.9829 78.8434Z" fill="black"/>
<path d="M68.9893 78.5192C69.0749 73.9884 67.22 70.2792 64.8464 70.2343C62.4728 70.1895 60.4793 73.8261 60.3937 78.3569C60.3081 82.8876 62.163 86.5969 64.5366 86.6417C66.9102 86.6865 68.9037 83.05 68.9893 78.5192Z" fill="#F0F0F4"/>
<path d="M64.5234 72.9288C64.534 72.3697 64.3152 71.9122 64.0348 71.9069C63.7543 71.9016 63.5184 72.3505 63.5079 72.9096C63.4973 73.4687 63.7161 73.9262 63.9965 73.9315C64.2769 73.9368 64.5128 73.4878 64.5234 72.9288Z" fill="#636780"/>
<path d="M62.3252 81.7491C62.3357 81.19 62.117 80.7325 61.8365 80.7272C61.5561 80.7219 61.3202 81.1708 61.3096 81.7299C61.2991 82.289 61.5179 82.7465 61.7983 82.7518C62.0787 82.7571 62.3146 82.3082 62.3252 81.7491Z" fill="#636780"/>
<path d="M67.8813 77.6358C67.8919 77.0767 67.6731 76.6192 67.3927 76.6139C67.1122 76.6086 66.8764 77.0576 66.8658 77.6166C66.8552 78.1757 67.074 78.6332 67.3544 78.6385C67.6349 78.6438 67.8708 78.1949 67.8813 77.6358Z" fill="#636780"/>
<path d="M66.2827 83.5108C66.2932 82.9517 66.0745 82.4942 65.794 82.4889C65.5136 82.4836 65.2777 82.9326 65.2672 83.4916C65.2566 84.0507 65.4754 84.5082 65.7558 84.5135C66.0362 84.5188 66.2721 84.0699 66.2827 83.5108Z" fill="#636780"/>
<path d="M61.7031 76.253C61.7136 75.6939 61.4949 75.2364 61.2144 75.2311C60.934 75.2258 60.6981 75.6747 60.6876 76.2338C60.677 76.7929 60.8958 77.2504 61.1762 77.2557C61.4566 77.261 61.6925 76.8121 61.7031 76.253Z" fill="#636780"/>
<path d="M65.3929 78.7692C65.418 77.4414 64.7726 76.3524 63.9513 76.3369C63.1301 76.3214 62.444 77.3852 62.4189 78.713C62.3939 80.0408 63.0393 81.1298 63.8605 81.1453C64.6818 81.1608 65.3679 80.097 65.3929 78.7692Z" fill="#636780"/>
<path opacity="0.1" d="M151.182 35.1367C151.182 35.1367 133.191 35.445 109.748 41.4022L151.182 35.1367Z" fill="black"/>
<path d="M65.9989 2.04297C65.9989 2.04297 66.9722 2.2176 66.4402 3.49663C66.159 4.11779 65.9501 4.76919 65.8176 5.43802C65.8176 5.43802 64.8318 5.92723 64.9026 4.24885C64.9733 2.57048 65.9989 2.04297 65.9989 2.04297Z" fill="#DCE0ED"/>
<path d="M103.834 32.8223L105.267 38.5262L110.204 34.2001" stroke="black" stroke-width="0.324955" stroke-miterlimit="10"/>
<path d="M112.363 39.5404L97.7666 37.0352L95.3046 51.3798L109.901 53.885L112.363 39.5404Z" fill="white"/>
<path d="M101.999 51.8397L102.273 50.2401C101.417 50.0903 100.619 49.705 99.9697 49.1273L100.532 48.1314C101.202 48.7004 102.011 49.0812 102.876 49.2349C104.001 49.4279 104.873 48.909 105.028 48.0062C105.177 47.1352 104.652 46.4907 103.561 45.8143C102.055 44.9036 101.363 44.0348 101.599 42.6568C101.825 41.3423 102.84 40.4895 104.338 40.5019L104.612 38.9023L105.414 39.0399L105.15 40.5761C105.871 40.7058 106.548 41.0183 107.114 41.4839L106.538 42.4611C106.032 42.0013 105.402 41.7003 104.726 41.5957C103.506 41.3864 103.102 42.067 102.994 42.7006C102.852 43.5241 103.187 44.0056 104.467 44.8122C105.984 45.7573 106.847 46.7533 106.605 48.1629C106.39 49.414 105.318 50.4366 103.641 50.4258L103.358 52.073L101.999 51.8397Z" fill="#636780"/>
<path d="M101.751 103.821C101.877 103.816 101.997 103.763 102.085 103.672C102.172 103.581 102.221 103.46 102.221 103.333C102.221 103.207 102.172 103.085 102.085 102.994C101.997 102.903 101.877 102.85 101.751 102.846C101.624 102.85 101.505 102.903 101.417 102.994C101.329 103.085 101.28 103.207 101.28 103.333C101.28 103.46 101.329 103.581 101.417 103.672C101.505 103.763 101.624 103.816 101.751 103.821Z" fill="#65617D"/>
</g>
<path opacity="0.1" d="M215.74 148.38C219.092 148.38 221.809 147.921 221.809 147.354C221.809 146.787 219.092 146.328 215.74 146.328C212.388 146.328 209.671 146.787 209.671 147.354C209.671 147.921 212.388 148.38 215.74 148.38Z" fill="#FF3838"/>
<path d="M211.664 142.585C211.664 142.585 215.126 142.479 216.169 141.736C217.213 140.993 221.495 140.106 221.753 141.297C222.012 142.489 226.956 147.223 223.048 147.255C219.139 147.286 213.966 146.646 212.925 146.012C211.883 145.378 211.664 142.585 211.664 142.585Z" fill="#A8A8A8"/>
<path opacity="0.2" d="M223.117 146.841C219.209 146.873 214.036 146.232 212.994 145.598C212.201 145.115 211.885 143.382 211.78 142.582C211.706 142.585 211.664 142.587 211.664 142.587C211.664 142.587 211.883 145.379 212.925 146.013C213.966 146.647 219.139 147.288 223.048 147.256C224.176 147.247 224.565 146.845 224.544 146.251C224.387 146.61 223.957 146.834 223.117 146.841Z" fill="black"/>
<path opacity="0.1" d="M250.942 136.188C253.521 136.188 255.612 135.835 255.612 135.399C255.612 134.963 253.521 134.609 250.942 134.609C248.362 134.609 246.271 134.963 246.271 135.399C246.271 135.835 248.362 136.188 250.942 136.188Z" fill="#FF3838"/>
<path d="M247.805 131.73C247.805 131.73 250.469 131.648 251.272 131.077C252.075 130.505 255.37 129.822 255.569 130.739C255.768 131.656 259.572 135.299 256.565 135.324C253.557 135.348 249.577 134.855 248.775 134.367C247.974 133.879 247.805 131.73 247.805 131.73Z" fill="#A8A8A8"/>
<path opacity="0.2" d="M256.618 135.004C253.611 135.028 249.63 134.536 248.829 134.047C248.219 133.676 247.975 132.342 247.894 131.727C247.838 131.729 247.805 131.73 247.805 131.73C247.805 131.73 247.974 133.879 248.775 134.367C249.577 134.855 253.557 135.347 256.565 135.323C257.433 135.316 257.733 135.007 257.716 134.55C257.596 134.826 257.265 134.999 256.618 135.004Z" fill="black"/>
<path opacity="0.1" d="M229.752 187.195C235.909 187.195 240.901 186.351 240.901 185.31C240.901 184.27 235.909 183.426 229.752 183.426C223.595 183.426 218.603 184.27 218.603 185.31C218.603 186.351 223.595 187.195 229.752 187.195Z" fill="#FF3838"/>
<path d="M222.265 176.552C222.265 176.552 228.624 176.356 230.541 174.991C232.457 173.626 240.324 171.997 240.799 174.185C241.274 176.374 250.356 185.072 243.176 185.13C235.996 185.188 226.493 184.011 224.58 182.846C222.667 181.681 222.265 176.552 222.265 176.552Z" fill="#A8A8A8"/>
<path opacity="0.2" d="M243.304 184.369C236.124 184.427 226.621 183.251 224.708 182.086C223.252 181.198 222.671 178.014 222.477 176.545C222.342 176.551 222.265 176.553 222.265 176.553C222.265 176.553 222.667 181.682 224.58 182.847C226.493 184.013 235.996 185.189 243.176 185.131C245.249 185.114 245.965 184.377 245.925 183.285C245.638 183.945 244.847 184.357 243.304 184.369Z" fill="black"/>
<path d="M347.471 118.965C347.471 126.448 344.582 133.642 339.405 139.046C334.229 144.45 327.166 147.646 319.689 147.968C312.213 148.289 304.902 145.711 299.281 140.771C293.659 135.831 290.163 128.912 289.521 121.456C289.479 120.985 289.447 120.513 289.433 120.035V120.01C289.419 119.662 289.412 119.313 289.412 118.965C289.415 111.268 292.474 103.886 297.918 98.4444C303.362 93.0024 310.744 89.9453 318.441 89.9453C326.139 89.9453 333.521 93.0024 338.965 98.4444C344.409 103.886 347.468 111.268 347.471 118.965Z" fill="#65617D"/>
<path opacity="0.2" d="M347.471 118.965C347.471 126.448 344.582 133.642 339.405 139.046C334.229 144.45 327.166 147.646 319.689 147.968C312.213 148.289 304.902 145.711 299.281 140.771C293.659 135.831 290.163 128.912 289.521 121.456C289.479 120.985 289.447 120.513 289.433 120.035V120.01C289.419 119.662 289.412 119.313 289.412 118.965C289.415 111.268 292.474 103.886 297.918 98.4444C303.362 93.0024 310.744 89.9453 318.441 89.9453C326.139 89.9453 333.521 93.0024 338.965 98.4444C344.409 103.886 347.468 111.268 347.471 118.965Z" fill="black"/>
<path d="M318.441 134.799C327.186 134.799 334.275 127.71 334.275 118.965C334.275 110.22 327.186 103.131 318.441 103.131C309.696 103.131 302.607 110.22 302.607 118.965C302.607 127.71 309.696 134.799 318.441 134.799Z" fill="#DCE0ED"/>
<path d="M318.441 128.466C323.688 128.466 327.941 124.212 327.941 118.965C327.941 113.718 323.688 109.465 318.441 109.465C313.194 109.465 308.94 113.718 308.94 118.965C308.94 124.212 313.194 128.466 318.441 128.466Z" fill="#65617D"/>
<path d="M192.496 118.965C192.497 126.448 189.607 133.642 184.431 139.046C179.254 144.45 172.191 147.646 164.715 147.968C157.238 148.289 149.927 145.711 144.306 140.771C138.685 135.831 135.189 128.912 134.547 121.456C134.504 120.985 134.473 120.513 134.459 120.035V120.01C134.445 119.662 134.438 119.313 134.438 118.965C134.44 111.268 137.5 103.886 142.943 98.4444C148.387 93.0024 155.769 89.9453 163.467 89.9453C171.164 89.9453 178.547 93.0024 183.99 98.4444C189.434 103.886 192.494 111.268 192.496 118.965Z" fill="#65617D"/>
<path opacity="0.2" d="M192.496 118.965C192.497 126.448 189.607 133.642 184.431 139.046C179.254 144.45 172.191 147.646 164.715 147.968C157.238 148.289 149.927 145.711 144.306 140.771C138.685 135.831 135.189 128.912 134.547 121.456C134.504 120.985 134.473 120.513 134.459 120.035V120.01C134.445 119.662 134.438 119.313 134.438 118.965C134.44 111.268 137.5 103.886 142.943 98.4444C148.387 93.0024 155.769 89.9453 163.467 89.9453C171.164 89.9453 178.547 93.0024 183.99 98.4444C189.434 103.886 192.494 111.268 192.496 118.965Z" fill="black"/>
<path d="M163.466 134.799C172.211 134.799 179.3 127.71 179.3 118.965C179.3 110.22 172.211 103.131 163.466 103.131C154.721 103.131 147.632 110.22 147.632 118.965C147.632 127.71 154.721 134.799 163.466 134.799Z" fill="#DCE0ED"/>
<path d="M163.466 128.466C168.713 128.466 172.966 124.212 172.966 118.965C172.966 113.718 168.713 109.465 163.466 109.465C158.219 109.465 153.965 113.718 153.965 118.965C153.965 124.212 158.219 128.466 163.466 128.466Z" fill="#65617D"/>
<path d="M356.525 113.527L346.839 113.106L337.995 96.6823L306.832 94.1555L291.671 113.949L292.514 119.423L290.408 124.477L191.443 125.319V122.792H190.601L189.759 119.002H197.339L191.864 113.106L172.492 96.6823C172.492 96.6823 139.223 97.5246 138.802 96.6823C138.381 95.8401 140.697 87.2069 140.697 87.2069L155.016 82.9957L203.866 79.2055C214.605 62.1499 224.291 54.1484 224.291 54.1484H349.787L355.683 84.4696V84.5412L356.525 113.527Z" fill="#444053"/>
<path d="M286.618 115.632C286.618 115.632 299.252 92.0488 308.938 92.0488H332.521C332.521 92.0488 338.417 92.0488 340.944 96.6812L350.63 115.632H343.049C343.049 115.632 336.733 97.9446 329.573 97.5235C322.414 97.1024 310.202 97.5235 310.202 97.5235C310.202 97.5235 305.99 97.5235 303.463 102.577C300.937 107.631 292.394 118.639 292.394 118.639C292.394 118.639 283.249 121.528 286.618 115.632Z" fill="#33323D"/>
<path d="M362 111.842H346.159L345.997 124.475L362 120.685V111.842Z" fill="#33323D"/>
<path d="M132.907 104.262C132.907 104.262 133.749 97.9449 139.645 95.4181L178.389 93.3125C178.389 93.3125 184.705 93.7336 188.074 101.735L199.024 118.159V120.686H186.811C186.811 120.686 180.915 98.366 164.07 99.2083H143.856C143.856 99.2083 139.224 99.2083 137.539 106.789L132.907 104.262Z" fill="#33323D"/>
<path d="M223.87 56.6734H353.156C353.156 55.4448 352.668 54.2666 351.799 53.3978C350.931 52.5291 349.752 52.041 348.524 52.041H228.503C227.894 52.041 227.292 52.1608 226.73 52.3936C226.168 52.6264 225.657 52.9677 225.227 53.3978C224.797 53.828 224.456 54.3386 224.223 54.9007C223.99 55.4627 223.87 56.0651 223.87 56.6734Z" fill="#33323D"/>
<path opacity="0.3" d="M251.577 81.5202H215.801C215.398 81.5202 215.001 81.4195 214.647 81.2273C214.293 81.035 213.992 80.7573 213.772 80.4194C213.553 80.0815 213.421 79.6941 213.389 79.2924C213.358 78.8906 213.427 78.4873 213.59 78.119L219.251 65.3815C220.125 63.4163 221.549 61.7467 223.353 60.5749C225.156 59.403 227.26 58.7793 229.411 58.7793H251.147C251.547 58.7793 251.943 58.858 252.312 59.011C252.682 59.164 253.017 59.3882 253.3 59.6709C253.583 59.9535 253.807 60.2891 253.96 60.6584C254.113 61.0278 254.191 61.4236 254.191 61.8234V78.9056C254.191 79.2489 254.124 79.5889 253.992 79.9061C253.861 80.2234 253.668 80.5116 253.426 80.7544C253.183 80.9972 252.895 81.1898 252.577 81.3212C252.26 81.4526 251.92 81.5202 251.577 81.5202Z" fill="#FF3838"/>
<path opacity="0.3" d="M296.61 58.7793H265.256C264.262 58.7793 263.456 59.5852 263.456 60.5793V79.7201C263.456 80.7143 264.262 81.5202 265.256 81.5202H296.61C297.604 81.5202 298.41 80.7143 298.41 79.7201V60.5793C298.41 59.5852 297.604 58.7793 296.61 58.7793Z" fill="#FF3838"/>
<path d="M355.683 84.4694V84.5412L301.358 85.3116L299.943 54.1484H349.787L355.683 84.4694Z" fill="#33323D"/>
<path opacity="0.3" d="M344.197 58.7793H307.79C306.796 58.7793 305.99 59.5852 305.99 60.5793V79.7201C305.99 80.7143 306.796 81.5202 307.79 81.5202H344.197C345.191 81.5202 345.997 80.7143 345.997 79.7201V60.5793C345.997 59.5852 345.191 58.7793 344.197 58.7793Z" fill="#FF3838"/>
<path d="M256.146 89.5234H243.814C243.498 89.5234 243.242 89.7795 243.242 90.0953V91.4783C243.242 91.7942 243.498 92.0502 243.814 92.0502H256.146C256.462 92.0502 256.718 91.7942 256.718 91.4783V90.0953C256.718 89.7795 256.462 89.5234 256.146 89.5234Z" fill="#33323D"/>
<path d="M294.89 89.5234H282.558C282.242 89.5234 281.986 89.7795 281.986 90.0953V91.4783C281.986 91.7942 282.242 92.0502 282.558 92.0502H294.89C295.206 92.0502 295.462 91.7942 295.462 91.4783V90.0953C295.462 89.7795 295.206 89.5234 294.89 89.5234Z" fill="#33323D"/>
<path d="M324.87 56.2656H309.275V71.5914H324.87V56.2656Z" fill="white"/>
<path d="M316.304 70.8747V69.1657C315.389 69.1628 314.492 68.905 313.715 68.4212L314.121 67.2874C314.918 67.7586 315.826 68.0097 316.751 68.0151C317.953 68.0151 318.765 67.3213 318.765 66.3567C318.765 65.4261 318.105 64.8508 316.853 64.3431C315.127 63.6663 314.254 62.8879 314.254 61.4157C314.254 60.0113 315.156 58.9453 316.712 58.6914V56.9824H317.568V58.6237C318.34 58.6298 319.098 58.8338 319.768 59.216L319.345 60.3327C318.738 59.9457 318.03 59.7457 317.31 59.7575C316.007 59.7575 315.709 60.5358 315.709 61.2127C315.709 62.0926 316.142 62.5326 317.614 63.1418C319.357 63.8524 320.43 64.7323 320.43 66.2383C320.43 67.575 319.499 68.8273 317.756 69.1149V70.8747L316.304 70.8747Z" fill="#636780"/>
<path d="M137.755 151.705C137.755 156.208 136.017 160.537 132.902 163.789C129.787 167.041 125.537 168.964 121.038 169.157C116.539 169.351 112.14 167.799 108.757 164.827C105.375 161.854 103.271 157.69 102.885 153.204C102.86 152.92 102.841 152.637 102.832 152.349V152.334C102.824 152.124 102.819 151.915 102.819 151.705C102.825 147.076 104.668 142.639 107.944 139.368C111.219 136.097 115.658 134.26 120.287 134.26C124.916 134.26 129.356 136.097 132.631 139.368C135.906 142.639 137.749 147.076 137.755 151.705Z" fill="#65617D"/>
<path d="M120.287 161.234C125.549 161.234 129.815 156.968 129.815 151.706C129.815 146.444 125.549 142.178 120.287 142.178C115.025 142.178 110.759 146.444 110.759 151.706C110.759 156.968 115.025 161.234 120.287 161.234Z" fill="#DCE0ED"/>
<path d="M120.287 157.422C123.444 157.422 126.003 154.862 126.003 151.705C126.003 148.548 123.444 145.988 120.287 145.988C117.129 145.988 114.57 148.548 114.57 151.705C114.57 154.862 117.129 157.422 120.287 157.422Z" fill="#65617D"/>
<path d="M74.4129 118.533L32.3501 119.38V113.169C32.727 108.179 37.8446 106.428 42.5154 105.88C46.1572 105.466 49.8443 105.743 53.3836 106.695C62.3082 109.058 67.9995 109.515 70.7944 109.559C71.4092 109.569 72.002 109.79 72.4726 110.186C72.9432 110.582 73.2629 111.128 73.3775 111.732C73.5109 112.441 73.6422 113.214 73.765 113.976C73.8582 114.573 73.9471 115.162 74.0276 115.71C74.2584 117.3 74.4129 118.533 74.4129 118.533Z" fill="#65617D"/>
<path d="M107.97 152.833H20.5905C19.9158 152.84 19.254 152.648 18.6874 152.282C18.1208 151.916 17.6745 151.391 17.4039 150.773C16.7454 149.199 17.6664 148.196 18.6489 147.607C20.6594 146.416 22.1835 144.551 22.9513 142.344C23.8829 139.602 24.7934 135.284 25.1512 128.556C25.5196 121.596 28.0392 118.155 30.7621 116.489H30.7642C34.2811 114.338 38.1367 115.144 38.1367 115.144L73.566 115.428C74.1966 115.714 74.78 116.095 75.2958 116.557C78.4528 119.496 73.8497 123.332 73.8497 123.332C63.9681 133.777 71.4487 144.364 71.4487 144.364H89.5772C92.9643 144.381 96.2765 143.367 99.0734 141.456C101.523 139.765 102.472 138.126 102.838 137.135C103.118 136.377 103.401 135.621 103.74 134.888C108.496 124.575 102.76 107.797 100.285 101.524C99.6705 99.9632 99.2576 99.0527 99.2576 99.0527L104.943 98.6229L108.538 98.3498L108.574 98.3477C116.497 112.013 119.442 126.055 120.433 136.46C120.526 137.44 120.602 138.391 120.664 139.303C120.777 141.039 120.532 142.779 119.945 144.416C119.358 146.053 118.441 147.552 117.251 148.82C116.061 150.089 114.623 151.099 113.027 151.789C111.431 152.48 109.71 152.835 107.97 152.833Z" fill="#FF3838"/>
<path opacity="0.1" d="M74.0276 115.711H32.3501V113.977H73.765C73.8582 114.574 73.9471 115.162 74.0276 115.711Z" fill="black"/>
<path opacity="0.1" d="M75.2958 116.557H31.0987C30.9837 116.557 30.8698 116.534 30.7642 116.489C34.281 114.338 38.1367 115.144 38.1367 115.144L73.5659 115.428C74.1966 115.714 74.7799 116.095 75.2958 116.557Z" fill="black"/>
<path d="M75.6644 114.402H15.6352C15.1566 114.402 14.7686 114.79 14.7686 115.269C14.7686 115.748 15.1566 116.136 15.6352 116.136H75.6644C76.143 116.136 76.531 115.748 76.531 115.269C76.531 114.79 76.143 114.402 75.6644 114.402Z" fill="#DCE0ED"/>
<path opacity="0.1" d="M120.433 136.46C118.42 138.649 116.938 139.511 117.007 137.201C117.219 130.213 104.943 98.6229 104.943 98.6229L108.574 98.3477C116.497 112.013 119.442 126.055 120.433 136.46Z" fill="black"/>
<path opacity="0.1" d="M137.649 149.79C135.564 150.29 132.985 150.798 129.805 151.264C128.623 151.437 127.356 151.604 126.002 151.764C122.756 152.149 119.002 152.486 114.666 152.744C113.438 152.818 112.162 152.885 110.84 152.945C108.362 153.057 105.711 153.143 102.885 153.203L102.832 152.348V152.333C106.781 150.739 112.993 146.485 113.995 135.405C116.49 134.443 119.173 134.067 121.837 134.306C124.501 134.544 127.074 135.391 129.359 136.781C131.644 138.17 133.58 140.066 135.017 142.321C136.455 144.577 137.355 147.132 137.649 149.79Z" fill="black"/>
<path d="M99.5396 152.834C99.5396 152.834 119.591 150.662 112.688 120.107C112.688 120.107 122.596 129.189 128.759 134.238C134.921 139.286 145.905 146.245 145.905 146.245C145.905 146.245 139.345 152.376 99.5396 152.834Z" fill="#FF3838"/>
<path opacity="0.1" d="M99.5396 152.834C99.5396 152.834 119.591 150.662 112.688 120.107C112.688 120.107 122.596 129.189 128.759 134.238C134.921 139.286 145.905 146.245 145.905 146.245C145.905 146.245 139.345 152.376 99.5396 152.834Z" fill="white"/>
<path d="M45.9709 169.172C55.6182 169.172 63.4388 161.352 63.4388 151.704C63.4388 142.057 55.6182 134.236 45.9709 134.236C36.3236 134.236 28.5029 142.057 28.5029 151.704C28.5029 161.352 36.3236 169.172 45.9709 169.172Z" fill="#65617D"/>
<path d="M45.9713 161.234C51.2335 161.234 55.4993 156.968 55.4993 151.706C55.4993 146.444 51.2335 142.178 45.9713 142.178C40.7092 142.178 36.4434 146.444 36.4434 151.706C36.4434 156.968 40.7092 161.234 45.9713 161.234Z" fill="#DCE0ED"/>
<path d="M45.9712 157.422C49.1285 157.422 51.688 154.862 51.688 151.705C51.688 148.548 49.1285 145.988 45.9712 145.988C42.8139 145.988 40.2544 148.548 40.2544 151.705C40.2544 154.862 42.8139 157.422 45.9712 157.422Z" fill="#65617D"/>
<path opacity="0.1" d="M65.5565 146.461C65.5565 135.18 56.5983 126.035 45.5478 126.035C34.4973 126.035 25.5391 135.18 25.5391 146.461C25.5391 146.937 25.5564 147.408 25.5877 147.876H65.5079C65.5393 147.408 65.5565 146.937 65.5565 146.461Z" fill="black"/>
<path d="M64.8151 146.108C64.8151 135.246 56.1887 126.439 45.5475 126.439C34.9062 126.439 26.2798 135.246 26.2798 146.108C26.2798 146.567 26.2964 147.021 26.3266 147.472H64.7683C64.7985 147.021 64.8151 146.567 64.8151 146.108Z" fill="#FF3838"/>
<path opacity="0.1" d="M64.8151 146.107C64.8151 146.423 64.8067 146.736 64.7918 147.047C64.7855 147.189 64.777 147.329 64.7686 147.471H26.3264C26.3179 147.329 26.3094 147.189 26.3031 147.047C26.2882 146.736 26.2798 146.423 26.2798 146.107C26.2798 135.245 34.9058 126.439 45.5475 126.439C56.1891 126.439 64.8151 135.245 64.8151 146.107Z" fill="white"/>
<path opacity="0.1" d="M64.792 147.047C64.7856 147.189 64.7772 147.328 64.7687 147.47H26.3265C26.3181 147.328 26.3096 147.189 26.3032 147.047H64.792Z" fill="black"/>
<path opacity="0.1" d="M116.989 118.005C118.265 117.428 118.122 114.355 116.668 111.141C115.215 107.928 113.003 105.79 111.727 106.367C110.45 106.944 110.594 110.017 112.047 113.231C113.501 116.445 115.713 118.582 116.989 118.005Z" fill="black"/>
<path d="M117.201 117.792C118.477 117.215 118.334 114.142 116.88 110.929C115.427 107.715 113.214 105.577 111.938 106.154C110.662 106.731 110.806 109.804 112.259 113.018C113.713 116.232 115.925 118.369 117.201 117.792Z" fill="#DCE0ED"/>
<path opacity="0.1" d="M108.538 98.3516V101.669H102.08C101.479 101.67 100.878 101.622 100.285 101.525C99.6707 99.965 99.2578 99.0545 99.2578 99.0545L104.943 98.6247L108.538 98.3516Z" fill="black"/>
<path d="M108.538 101.245H102.08C96.4086 101.245 91.811 97.0017 91.811 91.7673V90.8879C91.811 85.6535 96.4086 81.4102 102.08 81.4102L108.538 81.9964V101.245Z" fill="#FF3838"/>
<path d="M97.8986 87.0203C97.8986 87.0203 101.763 89.0847 99.5395 92.5783C99.5395 92.5783 96.8135 97.0512 92.5259 96.6277L90.9644 87.0203C90.9644 87.0203 96.0989 86.5439 97.8986 87.0203Z" fill="#FF3838"/>
<path opacity="0.1" d="M96.4153 86.8348C97.0288 86.8587 97.629 87.0199 98.172 87.3064C98.7149 87.5929 99.1868 87.9975 99.5528 88.4903C100.241 89.4431 100.651 90.8326 99.5395 92.5794C99.5395 92.5794 96.8135 97.0523 92.5259 96.6288L90.9644 87.0214C92.7763 86.8555 94.5963 86.7931 96.4153 86.8348Z" fill="black"/>
<path opacity="0.1" d="M108.326 81.9961C109.007 81.9961 109.682 82.1303 110.311 82.391C110.941 82.6517 111.513 83.0338 111.994 83.5155C112.476 83.9972 112.858 84.569 113.119 85.1984C113.379 85.8278 113.514 86.5023 113.514 87.1835V96.0572C113.514 97.433 112.967 98.7525 111.994 99.7253C111.021 100.698 109.702 101.245 108.326 101.245V81.9961Z" fill="black"/>
<path d="M108.538 81.9961C109.914 81.9961 111.233 82.5426 112.206 83.5155C113.179 84.4883 113.726 85.8077 113.726 87.1835V96.0572C113.726 97.433 113.179 98.7525 112.206 99.7253C111.233 100.698 109.914 101.245 108.538 101.245V81.9961Z" fill="#DCE0ED"/>
<path d="M90.5169 97.2358C92.8864 97.2358 94.8073 94.899 94.8073 92.0164C94.8073 89.1337 92.8864 86.7969 90.5169 86.7969C88.1474 86.7969 86.2266 89.1337 86.2266 92.0164C86.2266 94.899 88.1474 97.2358 90.5169 97.2358Z" fill="#FF3838"/>
<path d="M44.8286 116.146L46.7033 120.321L49.8362 116.146" stroke="black" stroke-width="0.324955" stroke-miterlimit="10"/>
<path d="M54.1851 120.496H38.8984V135.519H54.1851V120.496Z" fill="white"/>
<path d="M45.7883 134.815V133.14C44.891 133.137 44.0122 132.884 43.2505 132.41L43.6486 131.299C44.4295 131.761 45.3191 132.007 46.2264 132.012C47.404 132.012 48.2002 131.332 48.2002 130.386C48.2002 129.474 47.5534 128.91 46.3258 128.413C44.634 127.749 43.7783 126.986 43.7783 125.543C43.7783 124.166 44.6623 123.121 46.1883 122.872V121.197H47.0274V122.806C47.784 122.812 48.5264 123.012 49.1838 123.387L48.769 124.481C48.1735 124.102 47.4797 123.906 46.7737 123.918C45.4965 123.918 45.2047 124.68 45.2047 125.344C45.2047 126.206 45.6292 126.638 47.0723 127.235C48.7807 127.931 49.8325 128.794 49.8325 130.27C49.8325 131.581 48.9202 132.808 47.2118 133.09V134.815L45.7883 134.815Z" fill="#636780"/>
<path d="M18.8474 80.7832H16.5728V115.878H18.8474V80.7832Z" fill="#DCE0ED"/>
<path d="M16.5727 80.7832C16.5727 80.7832 8.12388 81.1082 6.4991 81.7581C4.87433 82.408 0 82.083 0 82.083V91.1818C0 91.1818 5.52424 89.8819 8.44883 90.8568C11.3734 91.8317 17.5476 89.557 17.5476 89.557L16.5727 80.7832Z" fill="#DCE0ED"/>
</g>
<defs>
<clipPath id="clip0_102_1191">
<rect width="362" height="192.874" fill="white" transform="translate(0 0.59375)"/>
</clipPath>
</defs>
</svg>
