<svg width="291" height="214" viewBox="0 0 291 214" fill="none" xmlns="http://www.w3.org/2000/svg">
<g clip-path="url(#clip0_102_977)">
<path opacity="0.1" d="M20.9969 85.5329C27.1066 99.3324 19.3112 115.228 10.1496 127.21C7.07718 131.221 3.69986 135.419 3.2689 140.467C2.75586 146.624 6.92473 152.285 11.8734 155.985C20.8943 162.727 33.2191 164.812 43.955 161.411C53.2339 158.479 61.0351 151.833 70.3931 149.154C86.0542 144.671 102.642 152.103 116.043 161.358C125.527 167.908 135.685 175.87 147.119 174.472C155.169 173.487 162 167.837 166.632 161.182C168.869 157.958 170.816 154.372 174.076 152.203C176.013 150.913 178.288 150.23 180.566 149.743C201.352 145.301 223.407 156.143 243.917 150.567C257.77 146.8 268.816 135.85 275.682 123.246C282.548 110.643 285.756 96.4066 288.426 82.3022C290.323 72.2787 291.898 61.4637 287.547 52.2405C282.932 42.4838 272.252 36.5706 261.519 35.4653C250.786 34.3601 240.018 37.4237 230.13 41.745C217.773 47.1482 205.662 54.712 192.173 54.7383C182.988 54.7559 174.231 51.2203 165.448 48.5437C150.736 44.0494 135.491 41.8154 120.267 39.7544C105.7 37.7814 90.9912 35.9432 76.3356 37.1159C65.9662 37.9397 56.8105 41.9034 46.7489 43.7357C40.1907 44.9318 33.6003 44.0288 27.1652 46.0547C19.2496 48.5319 11.0877 54.281 10.6509 63.3253C10.2376 71.924 17.7544 78.2066 20.9969 85.5329Z" fill="#FF3838"/>
<g opacity="0.5">
<path d="M204.6 53.6964C203.134 54.1186 201.314 55.2092 200.423 58.2024C198.664 64.0658 202.733 68.0764 201.399 74.1655C201.034 75.7845 200.335 77.3093 199.347 78.6422C197.714 80.8557 195.937 81.9052 194.219 83.4561C192.036 85.4369 190.471 88.0065 189.713 90.8557C188.883 94.0005 188.814 97.2977 189.511 100.475C190.124 103.131 191.167 105.063 192.076 107.218C193.208 109.967 194.091 112.812 194.715 115.719C195.061 117.132 195.258 118.578 195.301 120.032C195.33 121.858 195.046 123.843 194.767 125.802L192.284 143.131C191.953 145.438 191.619 147.783 191.607 149.979C191.589 152.515 191.997 154.693 192.402 156.819C193.281 161.404 194.21 166.162 196.213 168.581C198.215 171 201.61 170.161 203.7 165.224C205.688 160.533 205.729 154.26 207.482 149.24C210.244 141.325 215.738 140.269 218.784 132.726C221.716 125.491 220.813 116.602 222.302 108.358C223.363 102.445 225.624 97.0504 226.963 91.2075C228.889 82.7906 228.699 74.0541 227.16 67.5868C225.621 61.1195 222.859 56.6779 219.81 53.3094C218.517 51.8817 217.136 50.6123 215.512 50.4862C213.785 50.3543 212.287 52.5384 210.572 53.1804C208.585 53.9221 206.603 53.1277 204.6 53.6964Z" fill="#FF3838"/>
<path d="M213.95 50.8965C213.95 50.8965 211.018 125.737 198.726 169.871" stroke="#535461" stroke-width="0.58634" stroke-miterlimit="10"/>
<path d="M200.347 58.5684C200.347 58.5684 213.475 70.5326 210.998 93.3295" stroke="#535461" stroke-width="0.58634" stroke-miterlimit="10"/>
<path d="M189.317 92.6113C189.317 92.6113 210.895 96.9502 209.294 109.856" stroke="#535461" stroke-width="0.58634" stroke-miterlimit="10"/>
<path d="M227.186 67.4082C227.186 67.4082 218.458 75.0511 210.678 96.6988" stroke="#535461" stroke-width="0.58634" stroke-miterlimit="10"/>
<path d="M218.652 132.835C218.652 132.835 212.695 137.526 207.913 121.164" stroke="#535461" stroke-width="0.58634" stroke-miterlimit="10"/>
<path d="M192.953 142.378C192.953 142.378 205.102 140.792 206.222 133.182" stroke="#535461" stroke-width="0.58634" stroke-miterlimit="10"/>
</g>
<path d="M233.967 3.5004C230.959 3.94601 227.342 5.33857 225.855 9.63938C222.938 18.0709 231.81 24.4533 229.766 33.263C229.153 35.9015 227.644 38.0475 226.052 39.6131C222.932 42.6796 219.382 44.0106 216.011 46.0921C212.639 48.1736 209.139 51.4395 207.559 56.4557C206.037 61.2812 206.697 66.614 208.277 70.5982C209.857 74.5824 212.249 77.5522 214.386 80.8298C216.989 84.8649 219.165 89.1594 220.88 93.6443C221.645 95.6173 222.346 97.6988 222.595 100.062C222.871 102.756 222.522 105.655 222.176 108.493L219.092 133.706C218.681 137.063 218.268 140.478 218.505 143.712C218.772 147.444 219.875 150.698 220.962 153.876C223.308 160.73 225.817 167.851 230.235 171.648C234.653 175.445 241.596 174.615 245.331 167.591C248.887 160.903 248.233 151.683 251.264 144.5C256.043 133.181 267.286 132.266 272.695 121.522C277.887 111.214 274.982 98.0272 277.066 86.0482C278.561 77.4642 282.604 69.792 284.689 61.3458C287.679 49.1763 286.251 36.2915 282.293 26.5846C278.336 16.8777 272.097 10.0088 265.389 4.68774C262.545 2.43326 259.526 0.395728 256.16 0.0204708C252.572 -0.37824 249.71 2.64141 246.254 3.40072C242.238 4.30075 238.045 2.89647 233.967 3.5004Z" fill="#FF3838"/>
<path d="M252.982 0.480469C252.982 0.480469 255.811 110.349 235.58 173.882" stroke="#535461" stroke-width="0.58634" stroke-miterlimit="10"/>
<path d="M225.738 10.166C225.738 10.166 254.357 29.3452 251.906 62.62" stroke="#535461" stroke-width="0.58634" stroke-miterlimit="10"/>
<path d="M206.951 58.9941C206.951 58.9941 252.123 67.9417 250.34 86.7544" stroke="#535461" stroke-width="0.58634" stroke-miterlimit="10"/>
<path d="M282.334 26.3672C282.334 26.3672 265.166 36.5871 251.642 67.5429" stroke="#535461" stroke-width="0.58634" stroke-miterlimit="10"/>
<path d="M272.431 121.704C272.431 121.704 260.658 127.902 248.822 103.234" stroke="#535461" stroke-width="0.58634" stroke-miterlimit="10"/>
<path d="M220.355 132.711C220.355 132.711 245.313 131.814 246.74 120.744" stroke="#535461" stroke-width="0.58634" stroke-miterlimit="10"/>
<path opacity="0.1" d="M143.129 183.462C212.374 183.462 268.508 178.07 268.508 171.418C268.508 164.767 212.374 159.375 143.129 159.375C73.8831 159.375 17.7485 164.767 17.7485 171.418C17.7485 178.07 73.8831 183.462 143.129 183.462Z" fill="#FF3838"/>
<path d="M19.7155 157.084C19.7155 157.084 22.1723 160.309 18.5809 165.146C14.9896 169.983 12.0286 174.094 13.2394 177.116C13.2394 177.116 18.6572 168.107 23.0664 167.981C27.4757 167.855 24.5675 162.502 19.7155 157.084Z" fill="#FF3838"/>
<path opacity="0.1" d="M19.7155 157.084C19.9296 157.395 20.0984 157.734 20.2168 158.092C24.5205 163.147 26.8102 167.864 22.6765 167.984C18.8242 168.095 14.2039 174.982 13.0957 176.723C13.1323 176.858 13.1763 176.99 13.2276 177.119C13.2276 177.119 18.6454 168.11 23.0547 167.984C27.464 167.858 24.5674 162.502 19.7155 157.084Z" fill="black"/>
<path d="M24.2831 161.18C24.2831 162.311 24.1571 163.232 23.9899 163.232C23.8228 163.232 23.6968 162.314 23.6968 161.18C23.6968 160.045 23.8551 160.593 24.0105 160.593C24.1659 160.593 24.2831 160.048 24.2831 161.18Z" fill="#FFD037"/>
<path d="M25.8457 162.528C24.8518 163.07 23.987 163.408 23.9137 163.258C23.8404 163.109 24.5821 162.569 25.576 162.03C26.5698 161.49 26.177 161.883 26.2532 162.03C26.3294 162.176 26.8425 161.983 25.8457 162.528Z" fill="#FFD037"/>
<path d="M6.73687 157.084C6.73687 157.084 4.28011 160.309 7.87144 165.146C11.4628 169.983 14.4121 174.094 13.2394 177.116C13.2394 177.116 7.8216 168.107 3.41232 167.981C-0.996951 167.855 1.88784 162.502 6.73687 157.084Z" fill="#FF3838"/>
<path opacity="0.1" d="M6.73674 157.084C6.52266 157.395 6.35386 157.734 6.23542 158.092C1.93169 163.147 -0.357968 167.864 3.77573 167.984C7.62798 168.095 12.2483 174.982 13.3565 176.723C13.32 176.858 13.2759 176.99 13.2246 177.119C13.2246 177.119 7.80681 168.11 3.39754 167.984C-1.01174 167.858 1.88771 162.502 6.73674 157.084Z" fill="black"/>
<path d="M2.17236 161.18C2.17236 162.311 2.29843 163.232 2.46553 163.232C2.63264 163.232 2.7587 162.314 2.7587 161.18C2.7587 160.045 2.60039 160.593 2.44501 160.593C2.28963 160.593 2.17236 160.048 2.17236 161.18Z" fill="#FFD037"/>
<path d="M0.603974 162.528C1.59782 163.07 2.46267 163.408 2.53596 163.258C2.60925 163.109 1.86754 162.569 0.873689 162.03C-0.120157 161.49 0.272692 161.883 0.196468 162.03C0.120243 162.176 -0.389872 161.983 0.603974 162.528Z" fill="#FFD037"/>
<path d="M2.95215 176.697C2.95215 176.697 9.82112 176.485 11.8909 175.011C13.9607 173.536 22.445 171.786 22.9698 174.131C23.4946 176.477 33.2923 185.89 25.538 185.952C17.7836 186.013 7.51974 184.744 5.45289 183.486C3.38604 182.229 2.95215 176.697 2.95215 176.697Z" fill="#A8A8A8"/>
<path opacity="0.2" d="M25.6787 185.143C17.9243 185.204 7.66046 183.935 5.59361 182.677C4.01928 181.718 3.3919 178.279 3.18375 176.693H2.95508C2.95508 176.693 3.38897 182.234 5.45582 183.492C7.52267 184.75 17.7865 186.022 25.5526 185.96C27.7924 185.943 28.5635 185.145 28.5224 183.967C28.1911 184.679 27.3439 185.125 25.6787 185.143Z" fill="black"/>
<path d="M92.3574 132.204C92.3574 132.204 126.732 110.243 150.496 110.243C150.496 110.243 179.106 105.786 210.226 113.318C241.346 120.849 252.842 130.615 261.47 127.748L225.222 128.809L92.3574 132.204Z" fill="#8CD0F3"/>
<path opacity="0.1" d="M92.3574 132.204C92.3574 132.204 126.732 110.243 150.496 110.243C150.496 110.243 179.106 105.786 210.226 113.318C241.346 120.849 252.842 130.615 261.47 127.748L225.222 128.809L92.3574 132.204Z" fill="#8CD0F3"/>
<path d="M254.378 165.817H44.7378L50.5015 142.724L86.151 133.246L254.378 137.667V165.817Z" fill="#121C3F"/>
<path d="M265.412 151.387V158.757C265.412 158.757 259.188 163.272 258.623 166.808C258.623 166.808 249.71 169.071 247.166 169.071C246.934 169.071 246.682 169.071 246.418 169.097C246.815 168.031 247.126 166.934 247.347 165.817C247.971 162.683 247.893 159.45 247.117 156.35C246.341 153.251 244.888 150.361 242.861 147.891C240.834 145.421 238.285 143.431 235.396 142.064C232.508 140.698 229.352 139.989 226.157 139.989C222.962 139.989 219.806 140.698 216.918 142.064C214.029 143.431 211.48 145.421 209.453 147.891C207.426 150.361 205.973 153.251 205.197 156.35C204.421 159.45 204.342 162.683 204.967 165.817C205.267 167.328 205.728 168.802 206.342 170.214H194.257C194.257 170.214 194.146 170.253 193.964 170.332C193.316 170.625 191.789 171.399 191.569 172.616H91.419L89.3668 172.598C89.803 171.866 90.1946 171.108 90.5395 170.329C91.183 168.885 91.6609 167.374 91.9643 165.823C92.5604 162.861 92.5292 159.807 91.8729 156.858C91.2165 153.909 89.9494 151.13 88.1534 148.701C86.3573 146.272 84.0722 144.246 81.4452 142.753C78.8182 141.261 75.9076 140.336 72.9012 140.038C69.8948 139.739 66.8592 140.074 63.9902 141.021C61.1211 141.967 58.4822 143.505 56.2436 145.533C54.005 147.562 52.2164 150.038 50.993 152.8C49.7697 155.563 49.1388 158.551 49.1409 161.572C49.1409 162.996 49.2803 164.417 49.5573 165.814C50.0297 168.179 50.8958 170.449 52.1196 172.528C50.6889 172.179 47.5666 171.188 47.5666 171.188C47.5666 171.188 34.2714 169.775 30.8765 166.79L31.3895 166.436L33.5648 164.949L32.5739 161.138C32.4543 160.977 32.3558 160.802 32.2807 160.616C32.0169 159.98 31.7853 158.798 32.7176 157.315C34.1307 155.052 33.4241 146.99 33.4241 146.99C33.4241 146.99 52.6619 133.694 90.5717 130.722C90.5717 130.722 91.4776 131.425 93.348 131.572C94.6145 131.674 96.3237 131.519 98.4961 130.722C98.4961 130.722 101.607 132.135 114.914 124.498C114.914 124.498 137.549 108.936 167.256 110.355C167.256 110.355 197.81 108.514 223.838 118.564C235.055 122.891 243.589 125.198 249.672 126.418C255.289 127.547 258.816 127.755 260.431 127.772H260.467C260.994 127.772 261.308 127.772 261.419 127.772H261.466C261.466 127.772 261.466 131.141 261.645 135.119V135.14C261.71 136.523 261.798 137.98 261.921 139.396V139.484C262.261 143.428 262.847 147.01 263.864 147.72L265.412 151.387Z" fill="#2856B8"/>
<path d="M36.4823 146.667C36.4823 146.667 45.0047 140.018 55.6145 141.434C55.6145 141.434 45.9605 149.074 41.6098 148.579L40.8681 147.943L36.4706 148.189C36.4706 148.189 35.8139 147.163 36.4823 146.667Z" fill="#8CD0F3"/>
<path opacity="0.2" d="M44.7553 158.172V162.097C44.7553 162.097 44.4621 165.847 41.076 165.988L31.4014 166.466L33.5738 164.979L32.5828 161.168C32.4627 161.009 32.3641 160.834 32.2897 160.649C33.1692 159.84 35.2419 158.474 39.4577 158.181L44.7553 158.172Z" fill="white"/>
<path opacity="0.2" d="M89.7744 141.719L97.2004 141.426C97.2004 141.426 94.1954 143.795 92.0729 144.009C89.9503 144.223 89.7744 141.719 89.7744 141.719Z" fill="white"/>
<path opacity="0.2" d="M105.406 164.246C105.406 164.246 172.563 154.908 188.796 157.878C188.796 157.878 193.568 158.198 195.374 160.106C197.18 162.015 195.374 160.778 195.374 160.778L105.406 164.246Z" fill="white"/>
<path opacity="0.5" d="M143 138.039C143 138.039 143.85 136.447 145.228 136.411L154.175 135.951C154.175 135.951 154.034 137.188 152.443 137.649L143 138.039Z" fill="#18218A"/>
<path opacity="0.5" d="M194.773 135.351C194.773 135.351 195.624 133.759 197.002 133.724L205.949 133.252C205.949 133.252 205.808 134.489 204.216 134.949L194.773 135.351Z" fill="#18218A"/>
<path d="M164.222 113.539L157.356 131.546L132.601 131.572H126.227H120.683H115.89H110.46C110.46 131.572 113.767 129.145 119.094 126.052C120.853 125.026 122.85 123.929 125.016 122.827C127.01 121.807 129.156 120.775 131.41 119.795C133.169 119.021 135.022 118.277 136.916 117.582C145.503 114.442 155.154 112.334 164.222 113.539Z" fill="#8CD0F3"/>
<path d="M203.12 126.687C203.12 126.687 192.777 128.22 182.906 129.355C179.133 129.789 175.43 130.164 172.399 130.372L171.976 130.402C170.804 130.478 169.716 130.528 168.793 130.545C167.327 130.572 166.23 130.507 165.682 130.331L168.535 113.107C168.535 113.107 172.053 113.146 177.256 113.401L178.394 113.462C179.476 113.524 180.616 113.594 181.806 113.676C183.507 113.793 185.298 113.934 187.145 114.104C196.063 114.922 206.166 116.391 212.563 119.035C226.175 124.67 203.12 126.687 203.12 126.687Z" fill="#8CD0F3"/>
<path d="M250.789 135.35V139.947C250.789 139.947 243.363 140.052 244.955 138.569C245.985 137.584 246.921 136.504 247.749 135.344L250.789 135.35Z" fill="#8CD0F3"/>
<path d="M261.915 139.478L255.884 139.95V134.424C255.884 134.424 258.678 130.499 261.472 134.849L261.633 135.104L261.915 139.478Z" fill="#8CD0F3"/>
<path d="M70.7682 178.83C80.3 178.83 88.0271 171.103 88.0271 161.571C88.0271 152.04 80.3 144.312 70.7682 144.312C61.2364 144.312 53.5093 152.04 53.5093 161.571C53.5093 171.103 61.2364 178.83 70.7682 178.83Z" fill="#182A7C"/>
<path d="M84.6119 161.557C84.6181 165.119 83.2563 168.546 80.8076 171.132C78.359 173.718 75.0106 175.265 71.4542 175.453C67.8978 175.641 64.4052 174.455 61.6977 172.142C58.9902 169.828 57.2748 166.563 56.9058 163.021C56.5369 159.479 57.5425 155.93 59.715 153.108C61.8876 150.286 65.061 148.407 68.5797 147.858C72.0984 147.308 75.6937 148.132 78.6227 150.158C81.5518 152.183 83.5908 155.257 84.3187 158.743C84.5118 159.669 84.61 160.612 84.6119 161.557Z" fill="#802258"/>
<path opacity="0.5" d="M70.7474 173.483C77.3195 173.483 82.6472 168.142 82.6472 161.554C82.6472 154.966 77.3195 149.625 70.7474 149.625C64.1754 149.625 58.8477 154.966 58.8477 161.554C58.8477 168.142 64.1754 173.483 70.7474 173.483Z" fill="#18218A"/>
<path d="M74.729 148.239V148.743L70.7683 161.856L67.5903 148.022C69.9483 147.472 72.4088 147.547 74.729 148.239Z" fill="#802258"/>
<path d="M74.6996 174.881C72.431 175.553 70.0287 175.636 67.7192 175.121L70.7653 161.855L74.6996 174.881Z" fill="#802258"/>
<path d="M84.6115 161.558C84.6135 163.004 84.39 164.442 83.949 165.82H83.8933L70.7798 161.86L84.3418 158.746C84.5263 159.672 84.6167 160.614 84.6115 161.558Z" fill="#802258"/>
<path d="M70.7681 161.857L57.6546 165.817H57.552C56.8217 163.528 56.6915 161.089 57.1738 158.734L70.7681 161.857Z" fill="#802258"/>
<path d="M70.7476 163.076C71.588 163.076 72.2692 162.395 72.2692 161.555C72.2692 160.714 71.588 160.033 70.7476 160.033C69.9073 160.033 69.2261 160.714 69.2261 161.555C69.2261 162.395 69.9073 163.076 70.7476 163.076Z" fill="#182A7C"/>
<path d="M226.051 178.83C235.583 178.83 243.31 171.103 243.31 161.571C243.31 152.04 235.583 144.312 226.051 144.312C216.52 144.312 208.792 152.04 208.792 161.571C208.792 171.103 216.52 178.83 226.051 178.83Z" fill="#182A7C"/>
<path d="M239.898 161.557C239.904 165.119 238.542 168.546 236.094 171.132C233.645 173.718 230.297 175.265 226.74 175.453C223.184 175.641 219.691 174.455 216.984 172.142C214.276 169.828 212.561 166.563 212.192 163.021C211.823 159.479 212.829 155.93 215.001 153.108C217.174 150.286 220.347 148.407 223.866 147.858C227.385 147.308 230.98 148.132 233.909 150.158C236.838 152.183 238.877 155.257 239.605 158.743C239.798 159.669 239.896 160.612 239.898 161.557Z" fill="#802258"/>
<path opacity="0.5" d="M226.034 173.483C232.606 173.483 237.934 168.142 237.934 161.554C237.934 154.966 232.606 149.625 226.034 149.625C219.462 149.625 214.134 154.966 214.134 161.554C214.134 168.142 219.462 173.483 226.034 173.483Z" fill="#18218A"/>
<path d="M230.012 148.239V148.743L226.052 161.856L222.874 148.022C225.231 147.472 227.692 147.547 230.012 148.239Z" fill="#802258"/>
<path d="M229.986 174.881C227.717 175.553 225.315 175.636 223.005 175.121L226.051 161.855L229.986 174.881Z" fill="#802258"/>
<path d="M239.898 161.557C239.9 163.003 239.677 164.441 239.236 165.819H239.168L226.052 161.856L239.614 158.742C239.803 159.668 239.899 160.611 239.898 161.557Z" fill="#802258"/>
<path d="M226.052 161.857L212.938 165.817H212.836C212.105 163.528 211.975 161.089 212.458 158.734L226.052 161.857Z" fill="#802258"/>
<path d="M226.034 163.076C226.874 163.076 227.555 162.395 227.555 161.555C227.555 160.714 226.874 160.033 226.034 160.033C225.193 160.033 224.512 160.714 224.512 161.555C224.512 162.395 225.193 163.076 226.034 163.076Z" fill="#182A7C"/>
<path opacity="0.2" d="M125.019 122.844L120.683 131.583H115.89L119.094 126.069C120.862 125.043 122.853 123.949 125.019 122.844Z" fill="white"/>
<path opacity="0.2" d="M136.916 117.6L132.598 131.575H126.224L131.413 119.807C133.184 119.039 135.025 118.3 136.916 117.6Z" fill="white"/>
<path opacity="0.2" d="M181.812 113.691L172.404 130.375L171.982 130.404C170.809 130.48 169.722 130.53 168.798 130.548L177.262 113.418L178.4 113.48C179.467 113.538 180.616 113.609 181.812 113.691Z" fill="white"/>
<path opacity="0.2" d="M110.625 131.525L105.254 168.521L150.112 167.538L157.476 131.687L110.625 131.525Z" stroke="white" stroke-width="0.29317" stroke-miterlimit="10"/>
<path opacity="0.5" d="M193.967 170.319C193.319 170.613 191.791 171.386 191.572 172.603H91.4189L89.3667 172.586C89.8029 171.853 90.1945 171.096 90.5394 170.316L193.967 170.319Z" fill="#18218A"/>
<path d="M107.379 197.054C108.062 196.418 108.704 195.667 108.904 194.755C109.103 193.844 108.713 192.747 107.84 192.41C106.863 192.035 105.817 192.703 105.025 193.398C104.234 194.093 103.325 194.864 102.29 194.717C102.823 194.234 103.222 193.621 103.447 192.937C103.673 192.254 103.717 191.524 103.577 190.818C103.531 190.527 103.408 190.253 103.219 190.026C102.677 189.44 101.692 189.695 101.044 190.153C98.9917 191.618 98.4053 194.412 98.3907 196.939C98.1825 196.028 98.3584 195.078 98.3526 194.143C98.3467 193.207 98.0916 192.173 97.303 191.668C96.8118 191.404 96.2596 191.275 95.7023 191.293C94.7729 191.258 93.7381 191.352 93.1048 192.032C92.3162 192.876 92.5185 194.292 93.2074 195.221C93.8964 196.151 94.9371 196.734 95.8958 197.376C96.6654 197.835 97.3217 198.461 97.816 199.209C97.8746 199.313 97.9228 199.423 97.9597 199.537H103.782C105.088 198.875 106.298 198.04 107.379 197.054Z" fill="#FF3838"/>
<path d="M229.071 201.984C229.609 201.546 230 200.955 230.194 200.29C230.341 199.615 230.053 198.809 229.408 198.563C228.687 198.287 227.916 198.786 227.333 199.293C226.749 199.8 226.078 200.375 225.313 200.266C225.706 199.91 226 199.457 226.167 198.953C226.333 198.449 226.366 197.911 226.263 197.39C226.23 197.174 226.138 196.972 225.999 196.804C225.597 196.376 224.873 196.561 224.392 196.898C222.868 197.971 222.443 200.04 222.434 201.905C222.281 201.234 222.41 200.533 222.405 199.853C222.399 199.173 222.211 198.387 221.631 198.029C221.271 197.836 220.866 197.74 220.458 197.751C219.772 197.724 219.01 197.795 218.541 198.296C217.954 198.918 218.11 199.964 218.617 200.641C219.124 201.319 219.892 201.756 220.602 202.23C221.17 202.569 221.655 203.031 222.02 203.582C222.063 203.658 222.099 203.739 222.126 203.822H226.421C227.383 203.332 228.275 202.714 229.071 201.984Z" fill="#FF3838"/>
<path d="M248.127 211.31C248.665 210.872 249.056 210.281 249.25 209.616C249.397 208.942 249.109 208.135 248.465 207.889C247.743 207.614 246.972 208.112 246.389 208.619C245.805 209.126 245.134 209.701 244.369 209.592C244.762 209.236 245.056 208.784 245.223 208.28C245.389 207.776 245.422 207.237 245.319 206.716C245.286 206.501 245.195 206.298 245.055 206.13C244.653 205.702 243.929 205.887 243.448 206.224C241.924 207.297 241.499 209.367 241.49 211.231C241.338 210.56 241.467 209.859 241.461 209.179C241.455 208.499 241.267 207.713 240.687 207.356C240.327 207.162 239.923 207.066 239.514 207.077C238.828 207.051 238.066 207.121 237.597 207.622C237.01 208.244 237.166 209.29 237.673 209.968C238.18 210.645 238.948 211.082 239.658 211.557C240.226 211.895 240.711 212.357 241.077 212.908C241.12 212.985 241.155 213.065 241.182 213.149H245.477C246.439 212.658 247.331 212.04 248.127 211.31Z" fill="#FF3838"/>
<path d="M193.032 191.713C193.032 191.713 192.009 192.27 191.542 189.116C191.249 187.064 190.396 182.833 189.836 180.086L189.766 179.737C189.926 179.687 190.084 179.628 190.238 179.561C190.238 179.561 186.978 166.955 187.722 164.164C188.467 161.373 187.722 156.372 187.722 156.372L185.767 149.787C185.767 149.787 180.924 148.116 179.062 147.653C177.201 147.189 171.985 143.941 171.985 143.941C172.075 144.045 172.159 144.154 172.237 144.267L172.029 144.141C171.649 143.785 171.305 143.392 171.003 142.968C172.043 141.861 172.717 140.461 172.932 138.957C173.628 137.638 173.956 136.155 173.883 134.665C173.81 133.176 173.337 131.733 172.516 130.488C172.832 130.091 173.074 129.64 173.228 129.157C173.29 128.936 173.317 128.706 173.307 128.476C173.341 128.109 173.261 127.739 173.079 127.418C172.897 127.097 172.62 126.839 172.287 126.679C172.065 126.587 171.826 126.54 171.585 126.543C171.344 126.545 171.106 126.597 170.886 126.694C170.472 126.882 170.147 127.233 169.695 127.327C168.942 127.483 168.297 126.879 167.705 126.43C166.784 125.744 165.686 125.337 164.541 125.257C164.044 125.202 163.541 125.268 163.076 125.451C162.633 125.701 162.225 126.008 161.862 126.363C160.519 127.445 158.637 127.746 156.951 128.336C156.629 128.447 156.271 128.629 156.212 128.922C156.2 128.98 156.2 129.04 156.212 129.098C156.199 129.173 156.205 129.249 156.23 129.321C153.087 129.849 150.012 132.235 150.012 132.235L149.496 132.713C149.327 132.622 149.136 132.582 148.944 132.598C148.753 132.614 148.571 132.685 148.42 132.804L147.382 133.619C147.195 133.766 147.067 133.976 147.024 134.21C146.981 134.445 147.025 134.687 147.148 134.891L139.558 141.927L139.393 142.08V142.053C139.393 142.053 133.53 146.506 133.53 149.658C133.53 151.936 135.289 153.34 136.248 153.947C135.388 154.756 134.738 155.762 134.354 156.879V156.908V156.949V156.981V157.017V157.046V157.078V157.107V157.137V157.163V157.19V157.213V157.239V157.26V157.292V157.321V157.339V157.357V157.486V157.521V157.591V157.641V157.691L134.33 157.82V157.873L134.316 157.961V157.996V158.081V158.142L134.295 158.26L134.269 158.406V158.436L134.248 158.559V158.617L134.225 158.752V158.787L134.198 158.94V159.007L134.131 159.391L134.096 159.599V159.635L134.058 159.849V159.878L134.02 160.095V160.112L133.978 160.341V160.391L133.937 160.617V160.667L133.899 160.889V160.916L133.855 161.168V161.215L133.756 161.778L133.706 162.071V162.115L133.656 162.408V162.428L133.548 163.015V163.065L133.495 163.358V163.399L133.38 164.017V164.044L133.322 164.358V164.384L133.205 165.023V165.064L133.146 165.381V165.404L133.023 166.058V166.093L132.961 166.416V166.439L132.835 167.102V167.128L132.774 167.45V167.477L132.237 168.139V168.169L132.173 168.488V168.506L132.041 169.157V169.174L131.976 169.491V169.509L131.847 170.13V170.156L131.786 170.45V170.476L131.66 171.062V171.083L131.598 171.376V171.405L131.475 171.959V171.974L131.416 172.235V172.261C131.375 172.437 131.335 172.607 131.296 172.771L131.237 173.012V173.032C131.198 173.193 131.16 173.346 131.123 173.493L131.067 173.704V173.727L131.015 173.93C130.78 174.809 130.575 175.395 130.428 175.533C130.28 175.689 130.163 175.872 130.085 176.073L130.062 176.131L130.038 176.196L130.018 176.26L129.921 176.348L129.9 176.416L129.883 176.477L129.865 176.548V176.612L129.851 176.682V176.747C129.851 176.794 129.843 176.841 129.827 176.888V176.946V177.025V177.087V177.166V177.228V177.307V177.368V177.448V177.506C129.827 177.603 129.827 177.697 129.827 177.799C129.827 177.817 129.827 177.835 129.827 177.855C129.827 177.876 129.827 177.905 129.827 177.931C129.827 177.958 129.827 177.969 129.827 177.987C129.827 178.005 129.827 178.037 129.827 178.06C129.827 178.084 129.827 178.095 129.827 178.116C129.827 178.137 129.827 178.163 129.827 178.186V178.239C129.827 178.263 129.827 178.286 129.827 178.309V178.356C129.827 178.399 129.827 178.441 129.827 178.482V178.946V179.01V179.195L130.707 179.462C130.707 179.462 131.149 179.705 131.832 180.022C131.736 182.98 131.463 186.984 130.721 189.435C129.068 189.52 124.984 189.693 124.245 189.397C123.313 189.025 117.353 188.098 119.217 192.364C119.997 194.152 121.695 195.501 123.401 196.468C123.19 196.538 122.974 196.594 122.756 196.636C121.237 196.929 120.815 197.436 120.874 197.958C120.765 198.837 122.26 199.819 122.384 199.881C122.571 199.975 128.901 200.995 130.393 200.529C131.885 200.063 137.936 198.952 137.936 198.952C137.936 198.952 137.936 198.884 137.936 198.767C137.936 198.767 137.854 196.943 137.626 195.214C138.312 195.114 139.059 195.023 139.786 194.967C139.88 195.406 140.072 195.817 140.348 196.17C140.625 196.523 140.978 196.809 141.381 197.005C145.386 199.057 146.69 196.263 146.69 196.263C146.69 196.263 152.105 197.304 155.131 196.556C155.447 196.85 155.717 197.058 155.908 197.198C156.89 197.905 159.534 198.389 162.492 198.424C163.28 198.502 164.074 198.479 164.855 198.356C166.161 198.27 167.456 198.067 168.725 197.75C172.287 196.826 173.07 193.513 173.24 192.009C173.381 191.968 173.48 191.822 173.533 191.546C173.603 191.396 173.645 191.234 173.656 191.068C173.734 190.388 173.861 189.713 174.037 189.051L178.435 189.297C180.399 192.862 182.135 195.697 182.135 195.697L185.113 195.325C183.788 194.265 182.627 193.014 181.668 191.614C180.179 189.388 180.179 178.714 180.179 178.714L180.346 172.214V172.282V171.968C180.622 173.894 182.806 179.482 183.052 179.564C183.231 179.623 183.407 179.676 183.58 179.725L183.738 180.142C184.981 183.437 188.136 191.869 188.359 193.2C188.652 194.871 200.279 195.519 202.885 194.683C205.491 193.847 193.032 191.713 193.032 191.713ZM151.498 154.797L147.236 161.2C145.705 158.562 144.11 156.134 142.668 154.528C146.45 154.654 150.809 154.788 151.498 154.797ZM150.85 138.38C151.016 138.458 151.199 138.488 151.381 138.468C151.563 138.448 151.735 138.378 151.879 138.265L152.243 137.972C152.429 137.828 152.556 137.622 152.602 137.391C152.647 137.161 152.609 136.922 152.492 136.717L152.709 136.503C154.21 136.249 155.691 135.89 157.142 135.428C157.197 136.751 157.569 138.042 158.227 139.192C158.356 139.928 158.597 140.64 158.942 141.303C158.273 141.247 157.546 141.209 156.852 141.215C156.245 141.202 155.638 141.241 155.037 141.329C152.803 141.701 152.521 145.782 152.521 145.782C152.521 145.782 148.033 147.36 145.336 147.415C144.994 147.417 144.654 147.366 144.327 147.266L144.055 147.248L144.421 146.245C144.421 146.245 144.263 146.295 144.002 146.348C144.086 146.221 144.174 146.092 144.266 145.961C145.972 143.513 148.927 140.359 150.85 138.386V138.38ZM141.627 187.911C141.284 188.498 140.976 189.105 140.704 189.728C139.645 189.934 138.203 190.048 137.438 189.394C137.092 189.111 136.659 188.959 136.212 188.963L136.23 188.928C136.758 187.917 137.206 185.65 137.558 183.305C139.264 183.305 140.886 181.877 140.886 181.877L143.034 182.613L143.114 182.763L143.166 182.859L143.251 183.018L143.304 183.117L143.389 183.273L143.445 183.373L143.53 183.525L143.586 183.625L143.668 183.774L143.723 183.874L143.808 184.023L143.864 184.12L143.949 184.267L144.002 184.361L144.087 184.507L144.14 184.598L144.222 184.742L144.275 184.833L144.36 184.976L144.409 185.058L144.494 185.199L144.544 185.281L144.629 185.422L144.673 185.495L144.761 185.639L144.794 185.692C144.946 185.941 145.087 186.178 145.23 186.401L145.251 186.433L145.333 186.562L145.368 186.618L145.441 186.735L145.482 186.797L145.55 186.902L145.591 186.97L145.653 187.066L145.696 187.134L145.755 187.225L145.796 187.289L145.849 187.371L145.89 187.436L145.94 187.512L145.981 187.577L146.028 187.647L146.069 187.709C144.601 187.951 143.111 188.019 141.627 187.911Z" fill="url(#paint0_linear_102_977)"/>
<path d="M201.853 194.154C199.312 194.972 187.963 194.336 187.69 192.688C187.473 191.378 184.398 183.131 183.184 179.906L182.698 178.616L188.599 177.344C188.599 177.344 188.816 178.379 189.115 179.853C189.661 182.545 190.484 186.699 190.778 188.692C191.232 191.779 192.243 191.234 192.243 191.234C192.243 191.234 204.386 193.336 201.853 194.154Z" fill="#FFBDC6"/>
<path d="M169.792 140.58C169.792 140.58 169.338 143.304 173.243 145.857C177.148 148.411 173.788 157.569 173.788 157.569L170.9 157.731C169.066 157.833 167.264 157.221 165.872 156.023C164.48 154.824 163.607 153.133 163.436 151.304C163.436 151.304 165.069 148.666 162.073 141.861L169.792 140.58Z" fill="#FFBDC6"/>
<path d="M152.917 137.231C152.917 137.231 147.297 142.71 144.685 146.486C144.376 146.924 144.093 147.381 143.838 147.853C141.932 151.485 137.5 145.58 139.033 143.54L140.091 142.552L150.282 133.053C150.282 133.053 157.274 127.606 160.813 131.511C164.351 135.416 152.917 137.231 152.917 137.231Z" fill="#FFBDC6"/>
<path d="M165.401 143.994C169.913 143.994 173.571 140.336 173.571 135.823C173.571 131.31 169.913 127.652 165.401 127.652C160.888 127.652 157.23 131.31 157.23 135.823C157.23 140.336 160.888 143.994 165.401 143.994Z" fill="#A66477"/>
<path d="M132.129 188.978C132.129 188.978 126.046 189.342 125.137 188.978C124.228 188.615 118.42 187.709 120.247 191.886C122.073 196.064 128.963 197.788 128.963 197.788L133.947 196.515L132.129 188.978Z" fill="#7679B4"/>
<path opacity="0.05" d="M132.129 188.978C132.129 188.978 126.046 189.342 125.137 188.978C124.228 188.615 118.42 187.709 120.247 191.886C122.073 196.064 128.963 197.788 128.963 197.788L133.947 196.515L132.129 188.978Z" fill="black"/>
<path d="M153.826 171.094L166.037 176.054L172.982 190.806C172.982 190.806 173.073 195.981 168.534 197.162C163.996 198.344 157.64 197.799 156.004 196.617C154.368 195.436 147.652 188.446 147.652 188.446L153.826 171.094Z" fill="#7679B4"/>
<path opacity="0.05" d="M152.996 171.094L163.565 175.054L169.578 186.86C169.578 186.86 169.657 191.003 165.729 191.947C161.8 192.891 156.297 192.454 154.881 191.51C153.465 190.566 147.652 184.969 147.652 184.969L152.996 171.094Z" fill="black"/>
<path d="M142.478 188.978C142.478 188.978 139.3 190.068 138.03 188.978C136.761 187.887 134.489 189.25 134.489 189.25L135.491 195.152C135.491 195.152 140.03 194.152 142.484 194.425L142.478 188.978Z" fill="#FFBDC6"/>
<path opacity="0.05" d="M142.478 188.978C142.478 188.978 139.3 190.068 138.03 188.978C136.761 187.887 134.489 189.25 134.489 189.25L135.491 195.152C135.491 195.152 140.03 194.152 142.484 194.425L142.478 188.978Z" fill="black"/>
<path d="M144.287 182.625L141.387 181.625C141.387 181.625 138.209 184.44 136.11 182.079C134.011 179.719 138.016 169.913 138.016 169.913L142.281 163.012L145.368 172.727L148.183 177.447L144.287 182.625Z" fill="#565388"/>
<path opacity="0.05" d="M144.287 182.625L141.387 181.625C141.387 181.625 138.209 184.44 136.11 182.079C134.011 179.719 138.016 169.913 138.016 169.913L142.281 163.012L145.368 172.727L148.183 177.447L144.287 182.625Z" fill="black"/>
<path d="M171.982 182.078L178.52 182.984L179.792 188.976L171.712 188.522L171.982 182.078Z" fill="#565388"/>
<path opacity="0.05" d="M171.982 182.078L178.52 182.984L179.792 188.976L171.712 188.522L171.982 182.078Z" fill="black"/>
<path opacity="0.1" d="M162.815 149.215C162.815 149.215 165.538 159.655 174.249 152.12L176.609 182.079C176.609 182.079 173.703 186.708 173.249 190.874C172.794 195.04 164.896 177.975 160.176 177.893C155.456 177.811 150.78 171.22 150.78 171.22L156.093 160.279L162.815 149.215Z" fill="black"/>
<path d="M162.906 148.941C162.906 148.941 165.629 159.381 174.339 151.847L176.699 181.806C176.699 181.806 173.794 186.435 173.34 190.601C172.885 194.767 164.987 177.701 160.267 177.619C155.547 177.537 150.871 170.947 150.871 170.947L156.183 160.006L162.906 148.941Z" fill="#F2F1F2"/>
<path opacity="0.1" d="M161.452 142.223C161.452 142.223 157.64 141.587 155.459 141.95C153.278 142.314 153.008 146.307 153.008 146.307C153.008 146.307 146.834 148.485 144.747 147.772C144.747 147.772 134.486 147.045 134.486 150.132C134.486 153.22 137.758 154.653 137.758 154.653C137.758 154.653 152.003 155.134 152.102 155.108C155.371 154.199 152.012 155.108 152.012 155.108L146.11 164.005L151.557 171.54L157.368 167.274C157.368 167.274 158.095 163.278 160.006 161.282C161.367 159.854 163.146 153.428 164.052 149.872C164.243 149.123 164.282 148.343 164.169 147.579C164.056 146.814 163.792 146.08 163.392 145.418L161.452 142.223Z" fill="black"/>
<path opacity="0.1" d="M144.685 146.485C144.376 146.923 144.093 147.379 143.838 147.851C141.932 151.484 137.5 145.579 139.033 143.539L140.091 142.551C139.704 147.236 143.518 146.737 144.685 146.485Z" fill="black"/>
<path opacity="0.1" d="M152.011 154.754H151.909C151.909 154.754 155.28 153.845 152.011 154.754Z" fill="black"/>
<path d="M161.179 142.223C161.179 142.223 157.367 141.587 155.186 141.95C153.005 142.314 152.735 146.307 152.735 146.307C152.735 146.307 146.561 148.485 144.474 147.772L144.837 146.773C144.837 146.773 139.302 148.497 139.936 142.677C139.936 142.677 134.216 147.034 134.216 150.121C134.216 153.208 137.485 154.653 137.485 154.653C137.485 154.653 151.73 155.134 151.829 155.108C155.098 154.199 151.739 155.108 151.739 155.108L145.837 164.005L151.284 171.54L157.095 167.274C157.095 167.274 157.822 163.278 159.733 161.282C161.094 159.854 162.873 153.428 163.779 149.872C163.97 149.123 164.009 148.343 163.896 147.579C163.783 146.814 163.519 146.08 163.119 145.418L161.179 142.223Z" fill="#565388"/>
<path opacity="0.1" d="M179.883 171.73V172.229C179.844 172.065 179.844 171.894 179.883 171.73Z" fill="black"/>
<path opacity="0.1" d="M189.115 179.865C187.186 180.459 185.124 180.478 183.184 179.918L182.698 178.628L188.599 177.355C188.599 177.355 188.813 178.399 189.115 179.865Z" fill="black"/>
<path opacity="0.1" d="M171.44 144.492C171.44 144.492 176.524 147.67 178.341 148.125C180.159 148.579 184.879 150.212 184.879 150.212L186.784 156.662C186.784 156.662 187.512 161.563 186.784 164.284C186.057 167.005 179.25 172.182 179.614 171.364L179.432 178.535C179.432 178.535 179.432 188.975 180.898 191.141C182.363 193.308 178.127 189.007 178.127 189.007C178.127 189.007 172.997 181.426 172.363 176.615C171.73 171.804 172.724 153.299 172.724 153.299L171.815 152.027C171.815 152.027 173.709 147.125 171.44 144.492Z" fill="black"/>
<path d="M171.712 144.492C171.712 144.492 176.796 147.67 178.614 148.125C180.431 148.579 185.151 150.212 185.151 150.212L187.057 156.662C187.057 156.662 187.784 161.563 187.057 164.284C186.33 167.005 189.508 179.356 189.508 179.356C189.508 179.356 186.576 180.71 182.516 179.356C182.243 179.265 179.52 172.185 179.877 171.367L179.695 178.538C179.695 178.538 179.695 188.978 181.161 191.144C182.096 192.514 183.228 193.738 184.521 194.777L181.616 195.14C181.616 195.14 173.254 181.443 172.618 176.641C171.982 171.839 172.982 153.308 172.982 153.308L172.073 152.035C172.073 152.035 173.982 147.125 171.712 144.492Z" fill="#565388"/>
<path d="M146.925 188.073C146.925 188.073 140.842 179.278 141.114 175.174C141.114 175.174 140.387 180.803 139.572 181.166C138.757 181.53 130.584 178.985 130.584 178.985C130.584 178.985 130.22 176.347 131.129 175.444C132.038 174.541 134.852 157.739 134.852 157.739C134.852 157.739 135.852 153.201 140.208 152.928C144.565 152.656 154.371 174.808 154.371 174.808C154.371 174.808 155.823 188.073 146.925 188.073Z" fill="#7679B4"/>
<path d="M132.583 176.088C132.583 176.088 132.765 188.797 130.496 190.887C128.227 192.977 137.124 194.065 137.124 194.065C137.124 194.065 135.582 190.978 136.852 188.527C138.121 186.076 138.939 176.088 138.939 176.088H132.583Z" fill="#FFBDC6"/>
<path opacity="0.05" d="M133.035 190.713C133.035 190.713 132.126 188.443 129.675 190.258C129.675 190.258 127.497 195.342 123.682 196.069C119.868 196.796 123.137 198.974 123.319 199.065C123.501 199.156 129.675 200.156 131.126 199.701C132.577 199.247 138.479 198.159 138.479 198.159C138.479 198.159 138.206 192.167 137.306 191.709C136.406 191.252 136.849 194.427 133.035 190.713Z" fill="black"/>
<path d="M133.035 190.886C133.035 190.886 132.126 188.617 129.675 190.432C129.675 190.432 127.497 195.516 123.682 196.243C119.868 196.97 123.137 199.148 123.319 199.239C123.501 199.33 129.675 200.329 131.126 199.875C132.577 199.421 138.482 198.336 138.482 198.336C138.482 198.336 138.209 192.344 137.309 191.886C136.409 191.429 136.849 194.607 133.035 190.886Z" fill="#7679B4"/>
<path d="M150.129 133.839C150.896 135.03 151.721 136.182 152.604 137.29C152.688 137.388 152.751 137.502 152.79 137.626C152.828 137.749 152.842 137.879 152.829 138.008C152.816 138.137 152.777 138.261 152.715 138.375C152.652 138.488 152.568 138.588 152.466 138.667L152.111 138.946C152.01 139.025 151.893 139.083 151.769 139.117C151.645 139.15 151.515 139.158 151.387 139.141C151.26 139.123 151.137 139.08 151.027 139.013C150.917 138.947 150.821 138.859 150.745 138.755C149.95 137.654 148.956 136.712 147.813 135.979C147.683 135.898 147.574 135.786 147.495 135.654C147.417 135.522 147.371 135.373 147.363 135.219C147.354 135.066 147.383 134.912 147.446 134.772C147.509 134.632 147.605 134.509 147.725 134.414L148.737 133.616C148.841 133.534 148.961 133.474 149.089 133.441C149.217 133.408 149.351 133.401 149.482 133.422C149.613 133.443 149.738 133.491 149.849 133.563C149.961 133.634 150.056 133.728 150.129 133.839Z" fill="#565388"/>
<path opacity="0.1" d="M170.845 143.806C169.672 142.155 169.895 140.848 169.895 140.848L162.17 142.132C162.706 143.329 163.148 144.567 163.489 145.834C164.783 146.212 166.156 146.223 167.455 145.865C168.754 145.506 169.928 144.793 170.845 143.806Z" fill="black"/>
<path d="M165.447 145.852C169.458 145.852 172.709 142.601 172.709 138.59C172.709 134.579 169.458 131.328 165.447 131.328C161.437 131.328 158.186 134.579 158.186 138.59C158.186 142.601 161.437 145.852 165.447 145.852Z" fill="#FFBDC6"/>
<path opacity="0.1" d="M162.252 134.806C162.938 134.692 163.548 134.29 164.242 134.255C165.122 134.211 165.916 134.774 166.535 135.355C167.154 135.935 167.755 136.598 168.605 136.85C169.148 136.977 169.709 137.015 170.264 136.961C170.573 136.977 170.879 136.899 171.144 136.738C171.277 136.615 171.377 136.461 171.437 136.29C171.674 135.744 171.794 135.154 171.789 134.559C171.785 133.964 171.656 133.376 171.41 132.833C171.342 132.721 171.313 132.589 171.328 132.458C171.355 132.38 171.398 132.309 171.454 132.25C172.041 131.558 172.659 130.866 172.897 130.028C173.134 129.189 172.844 128.157 171.979 127.785C171.763 127.692 171.531 127.644 171.296 127.644C171.061 127.644 170.829 127.692 170.613 127.785C170.208 127.97 169.895 128.313 169.44 128.404C168.704 128.556 168.074 127.964 167.499 127.524C166.604 126.853 165.534 126.454 164.418 126.375C163.93 126.319 163.436 126.384 162.979 126.565C162.552 126.807 162.158 127.103 161.806 127.445C160.496 128.503 158.66 128.799 157.019 129.377C156.705 129.488 156.356 129.653 156.297 129.963C156.239 130.274 156.591 130.588 156.942 130.723C157.294 130.857 157.699 130.945 157.933 131.218C158.227 131.57 158.133 132.068 158.185 132.511C158.294 133.39 159.065 133.868 159.918 134.123C160.625 134.349 161.551 134.924 162.252 134.806Z" fill="black"/>
<path d="M162.252 134.623C162.938 134.508 163.548 134.107 164.242 134.072C165.122 134.028 165.916 134.591 166.535 135.171C167.154 135.752 167.755 136.414 168.605 136.666C169.148 136.794 169.709 136.831 170.264 136.778C170.573 136.793 170.879 136.716 171.144 136.555C171.276 136.432 171.377 136.278 171.437 136.106C171.674 135.56 171.794 134.971 171.789 134.375C171.785 133.78 171.656 133.192 171.41 132.65C171.342 132.537 171.313 132.405 171.328 132.275C171.355 132.197 171.398 132.126 171.454 132.066C172.041 131.375 172.659 130.683 172.897 129.844C173.134 129.006 172.844 127.974 171.979 127.601C171.763 127.508 171.531 127.461 171.296 127.461C171.061 127.461 170.829 127.508 170.613 127.601C170.208 127.786 169.895 128.129 169.44 128.22C168.704 128.372 168.074 127.78 167.499 127.341C166.613 126.685 165.559 126.295 164.459 126.215C163.971 126.159 163.477 126.224 163.02 126.405C162.593 126.647 162.199 126.943 161.847 127.285C160.537 128.343 158.701 128.639 157.06 129.217C156.746 129.328 156.397 129.492 156.338 129.803C156.28 130.114 156.632 130.428 156.983 130.562C157.335 130.697 157.74 130.785 157.974 131.058C158.268 131.41 158.174 131.908 158.226 132.351C158.335 133.23 159.106 133.708 159.959 133.963C160.625 134.165 161.551 134.74 162.252 134.623Z" fill="#A66477"/>
<path opacity="0.05" d="M156.392 169.559C156.392 169.559 161.578 170.438 162.874 173.238C164.169 176.038 171.962 183.613 171.962 183.613" fill="black"/>
<g opacity="0.05">
<path d="M139.754 180.534C138.936 180.898 130.765 178.356 130.765 178.356C130.665 177.566 130.674 176.766 130.792 175.979C130.323 177.11 130.584 178.992 130.584 178.992C130.584 178.992 138.754 181.534 139.572 181.171C139.842 181.05 140.103 180.353 140.331 179.47C140.15 180.036 139.956 180.452 139.754 180.534Z" fill="black"/>
<path d="M135.022 157.184C134.955 157.368 134.899 157.556 134.852 157.746C134.852 157.746 132.882 169.511 131.707 173.871C132.794 170.332 134.846 158.23 135.022 157.184Z" fill="black"/>
<path d="M147.107 187.437C147.107 187.437 141.023 178.641 141.296 174.537C141.296 174.537 141.232 175.047 141.117 175.768C141.393 180.06 146.925 188.076 146.925 188.076C151.155 188.076 153.046 185.079 153.864 181.934C152.961 184.83 151.053 187.437 147.107 187.437Z" fill="black"/>
</g>
<path d="M131.437 179.252C131.437 179.252 136.983 182.307 138.983 180.853C140.982 179.399 139.71 177.13 139.71 177.13L138.165 174.588H132.99L131.267 177.584L131.437 179.252Z" fill="#7679B4"/>
<path d="M169.262 191.25C169.262 191.25 169.625 183.988 160.364 184.079C151.103 184.17 160 184.079 160 184.079C160 184.079 156.368 182.988 151.83 185.545C147.291 188.101 142.114 187.541 142.114 187.541C142.114 187.541 137.936 194.442 141.841 196.439C145.746 198.435 147.016 195.697 147.016 195.697C147.016 195.697 155.005 197.239 156.822 195.152C158.12 196.438 159.767 197.314 161.558 197.671C163.35 198.029 165.207 197.852 166.899 197.163C166.899 197.163 171.44 195.152 169.262 191.25Z" fill="#7679B4"/>
</g>
<defs>
<linearGradient id="paint0_linear_102_977" x1="161.044" y1="200.646" x2="161.044" y2="125.252" gradientUnits="userSpaceOnUse">
<stop stop-color="#808080" stop-opacity="0.25"/>
<stop offset="0.54" stop-color="#808080" stop-opacity="0.12"/>
<stop offset="1" stop-color="#808080" stop-opacity="0.1"/>
</linearGradient>
<clipPath id="clip0_102_977">
<rect width="290.332" height="213.143" fill="white"/>
</clipPath>
</defs>
</svg>
